<svg width="109" height="27" viewBox="0 0 109 27" fill="none" xmlns="http://www.w3.org/2000/svg">
<mask id="mask0_870_46" style="mask-type:alpha" maskUnits="userSpaceOnUse" x="0" y="0" width="109" height="27">
<g clip-path="url(#clip0_870_46)">
<path fill-rule="evenodd" clip-rule="evenodd" d="M32.1213 7.49138L31.6413 13.7456C31.607 14.1579 31.6071 14.4328 31.6071 14.4672C31.6071 14.7077 31.7099 14.9483 31.8813 15.0857C32.0527 15.2576 32.4297 15.3607 33.0125 15.4294C33.1153 15.4294 33.1496 15.4637 33.1839 15.4637C33.2182 15.4981 33.2182 15.5325 33.2182 15.6356C33.2182 15.7043 33.1839 15.7387 33.1839 15.773C33.1496 15.8074 33.0811 15.8074 33.0125 15.8074C32.7725 15.8074 32.464 15.773 32.0869 15.773C31.7441 15.7387 31.4356 15.7387 31.1614 15.7387C30.9214 15.7387 30.6129 15.773 30.2359 15.773C29.8588 15.8074 29.5502 15.8074 29.3103 15.8074C29.2074 15.8074 29.1389 15.773 29.1046 15.773C29.0703 15.7387 29.0703 15.6699 29.0703 15.6012C29.0703 15.5325 29.0703 15.4981 29.1046 15.4637C29.1046 15.4294 29.1389 15.395 29.2075 15.395C29.7559 15.395 30.2015 15.2919 30.4415 15.0857C30.6815 14.8796 30.8529 14.6047 30.8529 14.261L30.8871 13.9174L31.4699 8.52229C31.5727 7.73192 31.6071 7.2852 31.6071 7.21647V7.11338C31.6071 6.73538 31.4699 6.42611 31.1957 6.28865C30.9214 6.11683 30.5786 6.04811 30.133 6.01374C30.0987 6.01374 30.0644 6.01374 30.0301 5.97938C29.9959 5.94501 29.9959 5.94501 29.9959 5.87629V5.84192C29.9959 5.7732 30.0301 5.73883 30.0301 5.67011C30.0644 5.63574 30.0644 5.63574 30.133 5.63574H30.2359C30.373 5.63574 30.5786 5.67011 30.8529 5.67011C31.1271 5.70447 31.2985 5.70447 31.4013 5.70447C31.5727 5.70447 31.8127 5.67011 32.2241 5.67011C32.6354 5.63574 32.8754 5.63574 32.9439 5.63574L36.0977 13.7112L39.2857 5.63574C39.3543 5.63574 39.6285 5.67011 40.0741 5.67011C40.5198 5.70447 40.794 5.70447 40.9997 5.70447C41.1025 5.70447 41.2739 5.67011 41.5825 5.67011C41.8567 5.63574 42.0624 5.63574 42.1995 5.63574C42.3023 5.63574 42.3709 5.67011 42.4052 5.67011C42.4395 5.70447 42.4395 5.7732 42.4395 5.84192C42.4395 5.94501 42.4395 6.01374 42.4052 6.01374C42.3709 6.04811 42.3709 6.04811 42.3023 6.04811C41.7539 6.08247 41.3768 6.1512 41.1711 6.32301C40.9311 6.49483 40.8283 6.80411 40.8283 7.25083C40.8283 7.38829 40.8626 7.86938 40.8969 8.65974C40.9311 9.45011 41.034 11.237 41.1368 13.9861C41.1711 14.5359 41.3082 14.9139 41.5825 15.1201C41.8567 15.2919 42.2338 15.395 42.7137 15.395C42.7823 15.395 42.8165 15.4294 42.8165 15.4637C42.8508 15.4981 42.8508 15.5668 42.8508 15.6356C42.8508 15.7043 42.8165 15.773 42.8165 15.8074C42.7823 15.8417 42.7137 15.8417 42.6109 15.8417C42.3709 15.8417 41.9938 15.8074 41.5139 15.8074C41.034 15.773 40.6569 15.773 40.4169 15.773C40.177 15.773 39.7999 15.8074 39.32 15.8074C38.8401 15.8417 38.4973 15.8417 38.2573 15.8417C38.223 15.8417 38.1545 15.8417 38.1202 15.8074C38.0859 15.773 38.0516 15.7387 38.0516 15.6356C38.0516 15.6012 38.0516 15.5325 38.0859 15.4981C38.1202 15.4637 38.1545 15.4294 38.2573 15.4294C38.7372 15.395 39.1143 15.3263 39.32 15.1545C39.5599 14.9827 39.6628 14.6734 39.6628 14.2954C39.6628 14.1236 39.6285 13.4363 39.5942 12.2679C39.5599 11.0996 39.4571 9.38138 39.3543 7.18211L35.9606 15.773C35.8577 15.9792 35.7892 16.0823 35.6863 16.0823C35.5835 16.0823 35.4806 15.9792 35.4121 15.7387L32.1213 7.49138Z" fill="url(#paint0_linear_870_46)"/>
<path fill-rule="evenodd" clip-rule="evenodd" d="M43.4688 15.6355C43.4688 15.4981 43.503 15.4294 43.5716 15.4294C43.8458 15.4294 44.0515 15.3606 44.2572 15.2232C44.4629 15.0857 44.5314 14.8108 44.5314 14.3297V14.1579V11.5806C44.5314 11.1683 44.4629 10.8934 44.36 10.7903C44.2572 10.6185 44.0172 10.5497 43.7087 10.5497C43.6401 10.5497 43.6059 10.481 43.6059 10.3092C43.6059 10.2061 43.6401 10.1374 43.7087 10.103C43.9487 10.0686 44.2572 9.93119 44.7028 9.79373C45.1142 9.62191 45.4227 9.48446 45.5598 9.31264C45.6284 9.24391 45.6627 9.20955 45.7312 9.20955C45.8683 9.20955 45.9369 9.24391 45.9369 9.31264C45.9369 9.41573 45.9026 9.725 45.9026 10.2405C45.8683 10.7559 45.8683 11.2714 45.8683 11.8212V14.2266C45.8683 14.5703 45.9026 14.8452 46.0397 15.0514C46.1769 15.2575 46.4168 15.3263 46.8625 15.3263C46.931 15.3263 46.9653 15.395 46.9653 15.5325C46.9653 15.6699 46.931 15.7386 46.8625 15.7386C46.6911 15.7386 46.4168 15.7043 46.0397 15.7043C45.6969 15.6699 45.4227 15.6699 45.2513 15.6699C45.0799 15.6699 44.8057 15.7043 44.4286 15.7043C44.0858 15.7386 43.8115 15.7386 43.6401 15.7386C43.503 15.8417 43.4688 15.773 43.4688 15.6355ZM44.4286 6.83846C44.4286 6.59791 44.4971 6.4261 44.6685 6.28864C44.8399 6.11682 45.0113 6.0481 45.217 6.0481C45.457 6.0481 45.6284 6.11682 45.7655 6.28864C45.9369 6.46046 46.0055 6.63228 46.0055 6.83846C46.0055 7.07901 45.9369 7.25082 45.7655 7.38828C45.5941 7.52573 45.4227 7.62882 45.217 7.62882C45.0113 7.62882 44.8399 7.5601 44.6685 7.38828C44.4971 7.25082 44.4286 7.04464 44.4286 6.83846Z" fill="url(#paint1_linear_870_46)"/>
<path fill-rule="evenodd" clip-rule="evenodd" d="M47.4102 15.6354C47.4102 15.4979 47.4444 15.4292 47.513 15.4292C47.7872 15.4292 48.0615 15.3605 48.1986 15.223C48.37 15.0856 48.4728 14.742 48.4728 14.1578V7.52557C48.4728 7.2163 48.4386 6.97575 48.37 6.80393C48.3014 6.63211 48.13 6.52902 47.8215 6.49466C47.7187 6.49466 47.6501 6.4603 47.5816 6.4603C47.5473 6.42593 47.513 6.3572 47.513 6.28848C47.513 6.18539 47.5473 6.11666 47.6158 6.11666C47.7872 6.0823 48.0958 5.9792 48.5071 5.84175C48.9185 5.66993 49.227 5.49811 49.4669 5.36066C49.5355 5.29193 49.6041 5.25757 49.6383 5.25757C49.7755 5.25757 49.844 5.29193 49.844 5.36066C49.844 5.53248 49.8097 5.84175 49.8097 6.32284C49.7755 6.80393 49.7755 7.31939 49.7755 7.8692V14.3639C49.7755 14.7076 49.8097 15.0168 49.9469 15.223C50.0497 15.4292 50.3239 15.4979 50.7696 15.4979C50.8381 15.4979 50.8724 15.5667 50.8724 15.7041C50.8724 15.8416 50.8381 15.9103 50.7696 15.9103C50.6325 15.9103 50.3582 15.876 49.9469 15.876C49.5355 15.8416 49.2613 15.8416 49.1584 15.8416C48.987 15.8416 48.7471 15.876 48.37 15.876C47.9929 15.9103 47.7187 15.9103 47.5473 15.9103C47.4444 15.8416 47.4102 15.7728 47.4102 15.6354Z" fill="url(#paint2_linear_870_46)"/>
<path fill-rule="evenodd" clip-rule="evenodd" d="M51.6957 11.065C51.6957 10.7214 52.0385 10.3434 52.7241 9.93105C53.4097 9.51868 54.0267 9.3125 54.6438 9.3125C55.1923 9.3125 55.6036 9.48432 55.9464 9.79359C56.2549 10.1372 56.4263 10.5496 56.4263 11.0994C56.4263 11.718 56.3921 12.3365 56.3921 13.0581C56.3578 13.7454 56.3578 14.2265 56.3578 14.467C56.3578 14.9825 56.5292 15.2574 56.8377 15.2574C56.9405 15.2574 57.0776 15.223 57.2148 15.0856C57.3519 14.9481 57.4547 14.9138 57.4547 14.9138C57.5576 14.9138 57.6261 14.9825 57.6261 15.1543C57.6261 15.3261 57.4547 15.4636 57.1805 15.7041C56.9063 15.9103 56.5635 16.0134 56.2207 16.0134C55.6036 16.0134 55.2608 15.7729 55.0894 15.2918C54.918 15.5323 54.6095 15.7041 54.2667 15.8416C53.9239 16.0134 53.5125 16.0821 53.0326 16.0821C52.6213 16.0821 52.2442 15.9447 51.97 15.7041C51.6957 15.4292 51.5586 15.0856 51.5586 14.6732C51.5586 14.1921 51.8328 13.711 52.4156 13.2987C52.9983 12.8863 53.9239 12.5427 55.1237 12.199C55.158 11.6492 55.158 11.2712 55.158 11.0307C55.158 10.687 55.0551 10.4121 54.918 10.206C54.7466 9.96541 54.5067 9.89668 54.1981 9.89668C53.8896 9.89668 53.6497 9.96541 53.444 10.1029C53.2383 10.2403 53.1355 10.4121 53.1355 10.6183C53.1355 10.962 53.0669 11.2025 52.8955 11.34C52.7241 11.5118 52.5527 11.5805 52.2442 11.5805C52.0728 11.5805 51.97 11.5461 51.8671 11.443C51.7643 11.34 51.6957 11.2369 51.6957 11.065ZM55.0551 12.7145C54.2667 12.8863 53.7182 13.1269 53.3754 13.4018C53.0326 13.6767 52.8612 13.986 52.8612 14.3296C52.8612 14.6732 52.9298 14.9481 53.0669 15.12C53.204 15.2918 53.4097 15.3605 53.6839 15.3605C53.9239 15.3605 54.1639 15.2918 54.4381 15.1887C54.7123 15.0512 54.8837 14.9138 54.9866 14.7076L55.0551 12.7145Z" fill="url(#paint3_linear_870_46)"/>
<path fill-rule="evenodd" clip-rule="evenodd" d="M60.1613 10.2747C60.5041 9.96541 60.8126 9.72486 61.0869 9.55305C61.3611 9.38123 61.6696 9.3125 61.9781 9.3125C62.1838 9.3125 62.3552 9.38123 62.5266 9.51868C62.698 9.65614 62.7666 9.79359 62.7666 9.99977C62.7666 10.206 62.698 10.3778 62.5952 10.5152C62.4923 10.6527 62.3552 10.7214 62.1838 10.7214C62.0124 10.7214 61.8067 10.6527 61.6011 10.5496C61.3954 10.4121 61.2583 10.3778 61.1211 10.3778C60.7783 10.3778 60.4355 10.5496 60.1613 10.9276V14.2952C60.1613 14.742 60.2641 15.0512 60.4698 15.223C60.7098 15.3949 60.9497 15.4636 61.3268 15.4636C61.3954 15.4636 61.4297 15.5323 61.4297 15.6698C61.4297 15.8072 61.3954 15.876 61.3268 15.876C61.1554 15.876 60.8469 15.8416 60.4013 15.8416C59.9899 15.8072 59.6814 15.8072 59.4757 15.8072C59.3043 15.8072 59.0301 15.8416 58.653 15.8416C58.3102 15.876 58.036 15.876 57.8646 15.876C57.796 15.876 57.7617 15.8072 57.7617 15.6698C57.7617 15.5323 57.796 15.4636 57.8646 15.4636C58.2074 15.4636 58.4473 15.3949 58.5844 15.223C58.7558 15.0512 58.8244 14.8107 58.8244 14.3983V14.2265V11.6492C58.8244 11.2369 58.7558 10.962 58.653 10.8589C58.5502 10.687 58.3102 10.6183 58.0017 10.6183C57.9331 10.6183 57.8988 10.5496 57.8988 10.3778C57.8988 10.2403 57.9331 10.1716 58.0017 10.1716C58.1045 10.1716 58.413 10.0685 58.8587 9.89668C59.3386 9.72486 59.6471 9.55305 59.7842 9.41559C59.8528 9.34686 59.8871 9.3125 59.9556 9.3125C60.0927 9.3125 60.1613 9.34686 60.1613 9.41559C60.1956 9.51868 60.1613 9.82795 60.1613 10.2747Z" fill="url(#paint4_linear_870_46)"/>
<path fill-rule="evenodd" clip-rule="evenodd" d="M76.2369 8.14423C76.2369 8.24733 76.1683 8.28169 75.9969 8.28169C75.8941 8.28169 75.7913 8.24732 75.757 8.10987C75.5513 7.45696 75.1742 6.94151 74.5915 6.52914C74.043 6.11678 73.3231 5.9106 72.4661 5.9106C71.3349 5.9106 70.4436 6.39169 69.6895 7.38823C68.9696 8.38478 68.5582 9.51878 68.5582 10.8246C68.5582 12.1304 68.9353 13.2644 69.7237 14.1922C70.5122 15.1201 71.4377 15.5668 72.6032 15.5668C73.4602 15.5668 74.2144 15.3262 74.8657 14.8795C75.4827 14.4328 75.9284 13.8486 76.2369 13.127C76.2712 12.9895 76.374 12.9208 76.5111 12.9208C76.614 12.9208 76.6825 12.9551 76.6825 13.0239C76.6825 13.0582 76.614 13.4362 76.4426 14.0891C76.3055 14.7764 76.2026 15.2231 76.1683 15.5324C75.8255 15.5324 75.2428 15.6011 74.4201 15.773C73.5974 15.9448 72.9803 16.0135 72.569 16.0135C70.9578 16.0135 69.6552 15.5324 68.5925 14.5702C67.5298 13.6081 67.0156 12.3366 67.0156 10.7559C67.0156 9.17514 67.5641 7.90369 68.6268 6.87278C69.6895 5.84187 71.0949 5.32642 72.7404 5.32642C73.1174 5.32642 73.6659 5.36078 74.3858 5.42951C75.1057 5.49823 75.6199 5.5326 75.8941 5.5326C75.9284 5.84187 75.9627 6.32296 76.0655 6.94151C76.2026 7.69751 76.2369 8.04114 76.2369 8.14423Z" fill="url(#paint5_linear_870_46)"/>
<path fill-rule="evenodd" clip-rule="evenodd" d="M77.3008 15.6354C77.3008 15.4979 77.3351 15.4292 77.4036 15.4292C77.6779 15.4292 77.9521 15.3605 78.0892 15.223C78.2606 15.0856 78.3635 14.742 78.3635 14.1578V7.52557C78.3635 7.2163 78.3292 6.97575 78.2606 6.80393C78.1921 6.63211 78.0207 6.52902 77.7121 6.49466C77.6093 6.49466 77.5407 6.4603 77.4722 6.4603C77.4379 6.42593 77.4036 6.3572 77.4036 6.28848C77.4036 6.18539 77.4379 6.11666 77.5065 6.11666C77.6779 6.0823 77.9864 5.9792 78.3977 5.84175C78.8091 5.66993 79.1176 5.49811 79.3576 5.36066C79.4261 5.29193 79.4947 5.25757 79.529 5.25757C79.6661 5.25757 79.7347 5.29193 79.7347 5.36066C79.7347 5.53248 79.7004 5.84175 79.7004 6.32284C79.6661 6.80393 79.6661 7.31939 79.6661 7.8692V14.3639C79.6661 14.7076 79.7004 15.0168 79.8375 15.223C79.9403 15.4292 80.2146 15.4979 80.6602 15.4979C80.7288 15.4979 80.763 15.5667 80.763 15.7041C80.763 15.8416 80.7288 15.9103 80.6602 15.9103C80.5231 15.9103 80.2488 15.876 79.8375 15.876C79.4261 15.8416 79.1519 15.8416 79.0491 15.8416C78.8777 15.8416 78.6377 15.876 78.2606 15.876C77.8835 15.9103 77.6093 15.9103 77.4379 15.9103C77.3351 15.8416 77.3008 15.7728 77.3008 15.6354Z" fill="url(#paint6_linear_870_46)"/>
<path fill-rule="evenodd" clip-rule="evenodd" d="M81.207 15.6355C81.207 15.4981 81.2413 15.4294 81.3099 15.4294C81.5841 15.4294 81.7898 15.3606 81.9955 15.2232C82.2011 15.0857 82.2697 14.8108 82.2697 14.3297V14.1579V11.5806C82.2697 11.1683 82.2011 10.8934 82.0983 10.7903C81.9955 10.6185 81.7555 10.5497 81.447 10.5497C81.3784 10.5497 81.3442 10.481 81.3442 10.3092C81.3442 10.2061 81.3784 10.1374 81.447 10.103C81.687 10.0686 81.9955 9.93119 82.4411 9.79373C82.8525 9.62191 83.161 9.48446 83.2981 9.31264C83.3667 9.24391 83.4009 9.20955 83.4695 9.20955C83.6066 9.20955 83.6752 9.24391 83.6752 9.31264C83.6752 9.41573 83.6409 9.725 83.6409 10.2405C83.6409 10.7559 83.6066 11.2714 83.6066 11.8212V14.2266C83.6066 14.5703 83.6409 14.8452 83.778 15.0514C83.9151 15.2575 84.1551 15.3263 84.6007 15.3263C84.6693 15.3263 84.7036 15.395 84.7036 15.5325C84.7036 15.6699 84.6693 15.7386 84.6007 15.7386C84.4293 15.7386 84.1551 15.7043 83.778 15.7043C83.4352 15.6699 83.161 15.6699 82.9896 15.6699C82.8182 15.6699 82.5439 15.7043 82.1669 15.7043C81.8241 15.7386 81.5498 15.7386 81.3784 15.7386C81.2413 15.8417 81.207 15.773 81.207 15.6355ZM82.1326 6.83846C82.1326 6.59791 82.2012 6.4261 82.3725 6.28864C82.5439 6.11682 82.7153 6.0481 82.921 6.0481C83.161 6.0481 83.3324 6.11682 83.4695 6.28864C83.6409 6.46046 83.7095 6.63228 83.7095 6.83846C83.7095 7.07901 83.6409 7.25082 83.4695 7.38828C83.2981 7.52573 83.1267 7.62882 82.921 7.62882C82.7153 7.62882 82.5439 7.5601 82.3725 7.38828C82.2012 7.25082 82.1326 7.04464 82.1326 6.83846Z" fill="url(#paint7_linear_870_46)"/>
<path fill-rule="evenodd" clip-rule="evenodd" d="M87.6552 10.8932V14.3295C87.6552 14.7419 87.7238 15.0512 87.8267 15.1886C87.9638 15.3604 88.1695 15.4292 88.478 15.4635C88.5122 15.4635 88.5465 15.4979 88.5808 15.4979C88.6151 15.5323 88.6151 15.5666 88.6151 15.6697C88.6151 15.8072 88.5808 15.8759 88.5123 15.8759C88.3409 15.8759 88.1009 15.8415 87.7924 15.8415C87.4839 15.8072 87.2439 15.8072 87.0725 15.8072C86.9011 15.8072 86.5926 15.8415 86.2498 15.8415C85.907 15.8759 85.6327 15.8759 85.4271 15.8759C85.3585 15.8759 85.3242 15.8072 85.3242 15.6697C85.3242 15.601 85.3242 15.5666 85.3585 15.5323C85.3928 15.4979 85.3928 15.4635 85.4613 15.4635C85.8727 15.4292 86.1469 15.3261 86.2498 15.1886C86.3526 15.0168 86.4212 14.8106 86.4212 14.5013V14.2264V11.6492C86.4212 11.2368 86.3526 10.9619 86.2498 10.8588C86.1469 10.7213 85.907 10.6183 85.5985 10.6183C85.5299 10.6183 85.4956 10.5495 85.4956 10.3777C85.4956 10.2746 85.5299 10.2059 85.5985 10.1715C85.8384 10.1372 86.1469 9.99971 86.5926 9.82789C87.0382 9.62171 87.3125 9.48426 87.381 9.41553C87.4496 9.3468 87.4838 9.31244 87.5524 9.31244C87.6895 9.31244 87.7581 9.3468 87.7581 9.41553C87.7581 9.51862 87.7238 9.79353 87.7238 10.2059C87.9638 9.96535 88.2723 9.79353 88.6151 9.58735C88.9236 9.38117 89.2664 9.27808 89.6092 9.27808C90.2605 9.27808 90.7747 9.48426 91.1861 9.86226C91.5632 10.2403 91.7688 10.7557 91.7688 11.4086V14.2952C91.7688 14.7075 91.8374 15.0168 91.9745 15.1886C92.1116 15.3604 92.3859 15.4292 92.7287 15.4292C92.7629 15.4292 92.7972 15.4635 92.8315 15.4635C92.8658 15.4979 92.8658 15.5666 92.8658 15.6353C92.8658 15.7728 92.8315 15.8415 92.763 15.8415C92.6601 15.8415 92.3859 15.8072 91.9745 15.8072C91.5631 15.7728 91.2889 15.7728 91.1175 15.7728C90.9461 15.7728 90.7404 15.8072 90.3976 15.8072C90.0548 15.8415 89.8149 15.8415 89.6778 15.8415C89.5749 15.8415 89.5749 15.7728 89.5749 15.6353C89.5749 15.601 89.5749 15.5323 89.6092 15.4979C89.6092 15.4635 89.6435 15.4292 89.712 15.4292C89.9863 15.3948 90.192 15.3261 90.3291 15.1543C90.4662 14.9824 90.5348 14.6732 90.5348 14.1577V11.6148C90.5348 10.6183 90.0891 10.1372 89.1636 10.1372C88.5465 10.2059 88.0666 10.4121 87.6552 10.8932Z" fill="url(#paint8_linear_870_46)"/>
<path fill-rule="evenodd" clip-rule="evenodd" d="M93.207 15.6355C93.207 15.4981 93.2413 15.4294 93.3099 15.4294C93.5841 15.4294 93.7898 15.3606 93.9955 15.2232C94.2012 15.0857 94.2697 14.8108 94.2697 14.3297V14.1579V11.5806C94.2697 11.1683 94.2011 10.8934 94.0983 10.7903C93.9955 10.6185 93.7555 10.5497 93.447 10.5497C93.3784 10.5497 93.3441 10.481 93.3441 10.3092C93.3441 10.2061 93.3784 10.1374 93.447 10.103C93.687 10.0686 93.9955 9.93119 94.4411 9.79373C94.8525 9.62191 95.161 9.48446 95.2981 9.31264C95.3667 9.24391 95.4009 9.20955 95.4695 9.20955C95.6066 9.20955 95.6752 9.24391 95.6752 9.31264C95.6752 9.41573 95.6409 9.725 95.6409 10.2405C95.6409 10.7559 95.6066 11.2714 95.6066 11.8212V14.2266C95.6066 14.5703 95.6409 14.8452 95.778 15.0514C95.9151 15.2575 96.1551 15.3263 96.6007 15.3263C96.6693 15.3263 96.7036 15.395 96.7036 15.5325C96.7036 15.6699 96.6693 15.7386 96.6007 15.7386C96.4293 15.7386 96.1551 15.7043 95.778 15.7043C95.4352 15.6699 95.161 15.6699 94.9896 15.6699C94.8182 15.6699 94.544 15.7043 94.1669 15.7043C93.8241 15.7386 93.5498 15.7386 93.3784 15.7386C93.2413 15.8417 93.207 15.773 93.207 15.6355ZM94.1669 6.83846C94.1669 6.59791 94.2354 6.4261 94.4068 6.28864C94.5782 6.11682 94.7496 6.0481 94.9553 6.0481C95.161 6.0481 95.3667 6.11682 95.5038 6.28864C95.6752 6.46046 95.7437 6.63228 95.7437 6.83846C95.7437 7.07901 95.6752 7.25082 95.5038 7.38828C95.3324 7.52573 95.161 7.62882 94.9553 7.62882C94.7496 7.62882 94.5782 7.5601 94.4068 7.38828C94.2354 7.25082 94.1669 7.04464 94.1669 6.83846Z" fill="url(#paint9_linear_870_46)"/>
<path fill-rule="evenodd" clip-rule="evenodd" d="M102.975 14.8794C102.975 14.9481 102.941 15.0169 102.872 15.0856C102.804 15.1543 102.735 15.2574 102.632 15.3261C102.392 15.5323 102.118 15.7041 101.741 15.876C101.364 16.0478 100.987 16.1165 100.61 16.1165C99.7186 16.1165 98.9645 15.8072 98.3474 15.1543C97.7304 14.5014 97.4219 13.711 97.4219 12.6801C97.4219 11.718 97.7304 10.9276 98.3817 10.2747C99.033 9.62177 99.7872 9.3125 100.713 9.3125C101.364 9.3125 101.913 9.41559 102.324 9.65614C102.77 9.89668 103.009 10.1372 103.009 10.4809C103.009 10.8932 102.804 11.0994 102.392 11.0994C102.05 11.0994 101.81 10.9276 101.673 10.5496C101.467 10.0685 101.124 9.82795 100.678 9.82795C100.061 9.82795 99.6158 10.0685 99.3415 10.5496C99.0673 11.0307 98.8959 11.718 98.8959 12.6801C98.8959 13.4705 99.0673 14.1234 99.4444 14.6045C99.8215 15.0856 100.336 15.3261 101.021 15.3261C101.295 15.3261 101.604 15.2918 101.878 15.1543C102.152 15.0512 102.358 14.9481 102.461 14.8794C102.564 14.8107 102.632 14.7763 102.701 14.7076C102.77 14.6389 102.804 14.6045 102.804 14.6045C102.872 14.6045 102.907 14.6389 102.941 14.6732C102.941 14.6732 102.975 14.742 102.975 14.8794Z" fill="url(#paint10_linear_870_46)"/>
<path d="M108.119 17.8691H23.9961V17.9722H108.119V17.8691Z" fill="#00355E"/>
<path fill-rule="evenodd" clip-rule="evenodd" d="M8.93472 5.42933C8.93472 5.42933 8.83188 5.0857 8.24912 4.94824C8.21484 5.01697 8.21484 5.05133 8.21484 5.0857C8.52336 5.18879 8.7976 5.39497 9.03756 5.63551L8.93472 5.42933Z" fill="url(#paint11_linear_870_46)"/>
<path fill-rule="evenodd" clip-rule="evenodd" d="M12.7083 5.42939C12.7083 5.39503 12.7083 5.39503 12.7083 5.39503C12.1599 5.29194 11.4057 5.36066 10.9943 5.66994L10.9258 5.87612C10.9258 5.87612 11.5771 5.63557 12.297 5.56684C12.4341 5.53248 12.6055 5.56684 12.7426 5.60121C12.7083 5.53248 12.7083 5.46375 12.7083 5.42939Z" fill="url(#paint12_linear_870_46)"/>
<path fill-rule="evenodd" clip-rule="evenodd" d="M8.9008 8.41913C8.86641 8.48786 8.83203 8.52222 8.83203 8.59095C8.83203 8.69404 8.93518 8.7284 9.00394 8.76277C9.03833 8.76277 9.07271 8.7284 9.07271 8.7284C9.00394 8.69404 8.93518 8.62531 8.9008 8.55658C8.9008 8.48786 8.93518 8.45349 8.96956 8.38477C8.96956 8.38477 8.9008 8.38477 8.9008 8.41913Z" fill="#004963"/>
<path fill-rule="evenodd" clip-rule="evenodd" d="M9.62109 8.62524C9.65537 8.79706 9.79249 8.90015 9.96389 8.83143C9.86105 8.7627 9.72393 8.69397 9.62109 8.62524Z" fill="#004963"/>
<path fill-rule="evenodd" clip-rule="evenodd" d="M13.8728 9.89677C13.8385 10.1717 13.5643 10.8246 13.4614 10.9277C13.0158 11.237 12.5359 11.4775 12.0217 11.6837C11.5761 11.8899 11.0961 12.0274 10.5819 12.1648C10.102 12.2679 9.6221 12.371 9.14218 12.3022C8.83366 12.2335 8.55942 12.0274 8.38802 11.7524C8.2509 11.4775 8.2509 11.2026 8.21662 10.8934C8.14806 10.4466 8.11379 9.96553 8.04523 9.51881C7.94239 9.00335 7.80527 8.48786 7.66815 8.00677C7.63387 7.83495 7.56531 7.66317 7.56531 7.45699C7.59959 7.21644 7.66815 7.01023 7.73671 6.80405C7.83955 6.49477 7.94239 6.21986 7.90811 5.87623C7.87383 5.77314 7.87383 5.70441 7.83955 5.60132C7.80527 5.63568 7.80527 5.70441 7.77099 5.70441C7.80527 5.84186 7.80527 5.87623 7.80527 6.01368C7.83955 6.49477 7.53103 6.90714 7.46247 7.35386C7.42819 7.56005 7.49675 7.76623 7.53103 7.93805C7.59959 8.17859 7.66815 8.4535 7.70243 8.69405C7.83955 9.2095 7.94239 9.72495 8.01095 10.2404C8.04523 10.584 8.0795 10.962 8.14806 11.34C8.28518 11.993 8.73082 12.3023 9.41642 12.3366C9.82778 12.3366 10.2391 12.2335 10.6505 12.1648C11.1304 12.0274 11.6103 11.8555 12.056 11.6837C12.5359 11.4775 13.0501 11.237 13.4614 10.9277C13.5643 10.859 13.8385 10.1373 13.8728 9.89677C13.9414 9.86241 13.8728 9.86241 13.8728 9.89677Z" fill="#004963"/>
<path fill-rule="evenodd" clip-rule="evenodd" d="M11.3711 6.32286C11.3711 6.6665 11.5768 7.0445 11.9539 7.01014C12.2624 6.97577 12.4338 6.6665 12.4338 6.39159C12.4338 6.35723 12.3652 6.39159 12.3652 6.42596C12.3309 6.76959 12.1253 7.11323 11.7482 6.94141C11.5082 6.83832 11.4397 6.56341 11.4397 6.35723C11.4739 6.2885 11.3711 6.2885 11.3711 6.32286Z" fill="#004963"/>
<path fill-rule="evenodd" clip-rule="evenodd" d="M12.7773 6.83826C11.886 7.04444 11.0633 6.90699 10.7891 6.76953C10.7891 6.76953 11.7146 7.31935 12.7773 6.90699H12.8116C12.7773 6.87262 12.7773 6.83826 12.7773 6.83826Z" fill="url(#paint13_linear_870_46)"/>
<path fill-rule="evenodd" clip-rule="evenodd" d="M12.9826 8.24731C12.8112 8.35041 12.7083 8.69404 12.5369 8.8315C12.5027 8.86586 12.5712 8.90022 12.5712 8.86586C12.7426 8.72841 12.914 8.62531 13.0854 8.55659C13.1883 8.55659 12.9826 8.24731 12.9826 8.24731Z" fill="#004963"/>
<path fill-rule="evenodd" clip-rule="evenodd" d="M8.11432 6.08232C8.04576 6.35723 8.1486 6.59778 8.42284 6.6665C8.73136 6.70087 8.8342 6.42596 8.86847 6.18541C8.86847 6.15105 8.79991 6.18541 8.79991 6.21978C8.79991 6.46032 8.6628 6.76959 8.35428 6.63214C8.1486 6.52905 8.11432 6.32287 8.18288 6.11668C8.21716 6.04796 8.11432 6.08232 8.11432 6.08232Z" fill="#004963"/>
<path fill-rule="evenodd" clip-rule="evenodd" d="M11.816 6.39148C11.7816 6.52894 11.7816 6.66639 11.9191 6.73512C11.9191 6.5633 11.9535 6.46021 12.0223 6.32275L11.816 6.39148Z" fill="#004963"/>
<path fill-rule="evenodd" clip-rule="evenodd" d="M8.4213 6.4261C8.45568 6.35737 8.49007 6.18555 8.55883 6.11682L8.38692 6.0481C8.31815 6.15119 8.4213 6.35737 8.4213 6.4261Z" fill="#004963"/>
<path fill-rule="evenodd" clip-rule="evenodd" d="M8.35404 5.73859C8.35404 5.80732 8.35404 5.87604 8.38832 5.97913C8.2512 5.91041 8.14836 5.73859 8.0798 5.6355C8.04552 5.73859 8.11408 5.87604 8.18264 5.94477C8.0798 5.94477 7.97696 5.87604 7.83984 5.66986C7.87412 5.80732 8.0798 6.04786 8.2512 6.08223L8.66256 6.04786C8.52544 5.97913 8.4226 5.87604 8.35404 5.73859Z" fill="#004963"/>
<path fill-rule="evenodd" clip-rule="evenodd" d="M12.1588 5.97937C12.1588 6.01374 12.1245 6.08243 12.1245 6.11679C12.2274 6.08243 12.2959 5.97937 12.3645 5.91064C12.3645 5.97937 12.3302 6.21992 12.2274 6.21992L11.9531 6.15119C12.0217 6.11683 12.0902 6.0481 12.1588 5.97937Z" fill="#004963"/>
<path fill-rule="evenodd" clip-rule="evenodd" d="M8.42188 10.0342C8.59327 10.103 8.62755 10.103 8.76467 9.99988C8.97035 9.89679 9.27887 9.96552 9.48455 10.0686C9.62167 10.1373 9.79307 10.2061 9.96447 10.2404C10.1359 10.3092 10.3415 10.3435 10.5472 10.3435C10.5815 10.3435 10.6158 10.3092 10.5815 10.3092C10.3415 10.2748 10.1359 10.2404 9.93019 10.1717C9.79307 10.103 9.62167 10.0342 9.45027 9.99988C9.27887 9.93115 9.10747 9.93115 8.90179 9.93115C8.83323 9.93115 8.79895 9.96552 8.73039 9.96552C8.62755 9.99988 8.55899 10.0342 8.42188 9.99988C8.45615 9.99988 8.42188 9.99988 8.42188 10.0342Z" fill="#004963"/>
<path fill-rule="evenodd" clip-rule="evenodd" d="M8.52656 9.86231C8.59512 9.75922 8.6294 9.65613 8.73224 9.55304C8.90364 9.38122 9.00648 9.48431 9.10932 9.5874C9.17788 9.65613 9.28072 9.62176 9.34928 9.55304C9.58924 9.38122 9.86348 9.69049 10.0349 9.82794C10.2063 9.9654 10.3777 10.1372 10.6176 10.2059C10.6519 10.2059 10.6862 10.1716 10.6862 10.1716C10.412 10.0685 10.2063 9.86231 9.96632 9.65613C9.8292 9.51867 9.6578 9.38122 9.45212 9.44994C9.34928 9.48431 9.28072 9.5874 9.17788 9.48431C9.10932 9.41558 9.07504 9.38122 9.00648 9.41558C8.76652 9.44994 8.6294 9.65613 8.52656 9.86231C8.52656 9.89667 8.45801 9.89667 8.52656 9.86231Z" fill="#004963"/>
<path fill-rule="evenodd" clip-rule="evenodd" d="M8.45703 10.0341C8.55987 10.0685 8.62843 10.1028 8.73127 10.1028C8.97123 10.1372 9.17691 10.1716 9.41687 10.1716C9.72539 10.2403 10.0682 10.309 10.3767 10.309C10.411 10.309 10.4453 10.2747 10.411 10.2747C10.1025 10.2747 9.82823 10.2059 9.51971 10.1372C9.27975 10.1028 9.07407 10.0685 8.86839 10.0685C8.76555 10.0341 8.62843 10.0341 8.52559 9.99976L8.45703 10.0341Z" fill="#004963"/>
<path fill-rule="evenodd" clip-rule="evenodd" d="M8.66406 10.584C8.73262 10.8933 9.55534 10.962 10.1381 10.7215C10.1724 10.6871 10.1724 10.6871 10.1381 10.6871C9.72674 10.7902 9.04114 10.7902 8.66406 10.5496C8.66406 10.5153 8.66406 10.5496 8.66406 10.584Z" fill="#004963"/>
<path fill-rule="evenodd" clip-rule="evenodd" d="M10.2062 10.2403C9.86338 10.1716 9.76054 9.99978 9.17778 9.93106C8.83499 9.86233 8.80071 9.93106 8.62931 9.99978C8.56075 10.0341 8.52647 10.0341 8.49219 10.0341C8.56075 10.0685 8.62931 10.1029 8.66359 10.0685C8.83499 9.96542 8.90355 9.96542 9.17778 9.96542C9.76054 10.0341 9.86338 10.3091 10.6175 10.3091L10.7204 10.2403C10.7204 10.2747 10.4119 10.2747 10.2062 10.2403Z" fill="#004963"/>
<path fill-rule="evenodd" clip-rule="evenodd" d="M7.94141 6.3916V6.49469C7.94141 6.49469 8.04425 6.66651 8.2842 6.73524C8.66128 6.80397 9.00408 6.63215 9.00408 6.63215C8.69556 6.66651 8.2842 6.59778 7.94141 6.3916Z" fill="url(#paint14_linear_870_46)"/>
<path fill-rule="evenodd" clip-rule="evenodd" d="M13.8744 9.89673C13.7716 10.4809 13.5659 10.8589 13.4631 10.9276C12.4004 11.6493 11.0292 12.1304 9.72656 12.3366L10.515 12.6802C14.3886 11.5806 13.8744 9.89673 13.8744 9.89673Z" fill="#014A8D"/>
<path fill-rule="evenodd" clip-rule="evenodd" d="M15.6206 6.63215C15.3463 5.25761 15.1064 2.13051 13.4609 1.23706C15.0378 2.09615 15.0721 6.4947 15.5177 8.28161C15.8262 9.5187 15.9976 10.4465 17.2317 11.1338C16.1348 10.1372 15.9976 8.41906 15.6206 6.63215Z" fill="url(#paint15_linear_870_46)"/>
<path fill-rule="evenodd" clip-rule="evenodd" d="M12.7777 6.08245C12.7434 3.81445 11.8179 1.92444 10.7209 2.16498L10.6523 2.47426C11.2008 2.47426 12.2292 3.84881 12.4006 5.67008C12.5035 6.63226 12.7434 7.97245 13.0177 9.00336C13.4633 10.5154 14.9716 11.3744 16.6856 12.1648C18.4339 12.9895 19.0509 14.0204 19.2909 14.6734C18.2625 10.7215 12.8805 12.4054 12.7777 6.08245Z" fill="#014A8D"/>
<path fill-rule="evenodd" clip-rule="evenodd" d="M5.71436 7.42261C1.80645 9.82806 1.32653 10.4122 1.15513 11.2026C0.606655 13.7112 3.9318 13.4019 3.28048 15.3262C4.24032 13.5737 0.983733 13.5393 2.14925 10.859C2.52633 9.96552 4.99448 8.62534 7.70259 6.0137C8.73098 5.05152 9.24518 3.16152 9.5537 2.7148C9.8965 2.23371 10.3421 2.23371 10.3421 2.23371C8.66242 2.19934 9.58798 5.05152 5.71436 7.42261Z" fill="url(#paint16_linear_870_46)"/>
<path fill-rule="evenodd" clip-rule="evenodd" d="M10.4109 20.2746C9.48531 18.4877 5.61169 16.2541 5.74881 13.2988C5.85165 11.1339 6.67436 10.8246 7.42852 8.83151C7.59992 8.35042 7.66848 8.10988 7.66848 8.10988L7.53136 7.56006C6.9486 9.48442 4.99465 11.0308 4.82325 13.0926C4.58329 16.7008 8.42263 17.5255 10.1366 20.2059C10.8908 21.4086 11.3021 23.0924 10.1366 24.4326C11.2679 23.333 11.0965 21.6148 10.4109 20.2746Z" fill="url(#paint17_linear_870_46)"/>
<path fill-rule="evenodd" clip-rule="evenodd" d="M6.1954 17.1474C4.68709 16.2196 4.10433 14.6732 3.93293 13.4018C3.4873 9.62176 7.94368 8.55648 7.9094 5.7043C7.9094 5.66994 7.66944 5.87612 7.66944 5.87612C7.53232 7.52558 6.50392 7.52558 5.09845 9.17503C2.56174 12.1647 3.17877 14.9825 5.71549 17.0443C6.881 18.0065 8.56071 18.7281 8.49215 20.0339C8.49215 20.0683 9.04063 18.8999 6.1954 17.1474Z" fill="#014A8D"/>
<path fill-rule="evenodd" clip-rule="evenodd" d="M16.3062 20.79C15.9634 19.5186 15.2778 18.3846 14.5579 17.2849C13.8381 16.2197 13.0154 15.1888 12.1584 14.2266C11.5413 13.5737 10.89 12.8864 10.1701 12.3709C10.1358 12.3366 10.1016 12.4053 10.1016 12.4053C10.89 12.9551 11.5756 13.7111 12.2269 14.3984C13.1525 15.4293 14.0095 16.4946 14.7636 17.6629C15.4149 18.6939 16.032 19.7591 16.3062 20.9275C16.5462 21.8209 16.5805 22.8519 15.9977 23.6079C15.9634 23.6422 16.0663 23.6422 16.0663 23.6079C16.649 22.8175 16.5805 21.7522 16.3062 20.79Z" fill="url(#paint18_linear_870_46)"/>
<path fill-rule="evenodd" clip-rule="evenodd" d="M10.275 12.4053C10.275 12.4053 10.1036 12.3022 9.41797 12.3366C11.1662 13.5737 14.6285 17.8004 15.4169 21.1681C16.3425 25.0168 14.5599 26.357 14.4571 26.4601C18.0908 23.6422 15.5198 17.4568 10.275 12.4053Z" fill="#014A8D"/>
<path fill-rule="evenodd" clip-rule="evenodd" d="M9.4156 17.1819C6.84461 13.2988 7.49593 10.7559 7.97585 9.41573C7.97585 9.41573 7.90729 8.93464 7.73589 8.41919C7.35881 9.58755 5.98762 12.9208 8.21581 16.0479C10.4097 19.175 11.9523 19.9654 13.4263 22.3708C14.4547 24.089 13.3578 25.2574 13.3578 25.2574C15.7917 22.9206 10.7868 19.2437 9.4156 17.1819Z" fill="url(#paint19_linear_870_46)"/>
<path fill-rule="evenodd" clip-rule="evenodd" d="M11.852 0C9.34954 0.0687273 7.29275 3.50509 6.70999 4.39855C6.12724 5.25764 5.03028 6.49473 3.76193 6.73527C2.04793 7.04455 1.01953 6.28855 1.01953 6.28855C3.79621 8.48782 5.81872 5.97927 6.91567 4.158C8.62967 1.34018 10.8236 -0.584182 12.3319 0.515455L12.8461 0.343636C12.8461 0.343636 12.7775 0 11.852 0Z" fill="url(#paint20_linear_870_46)"/>
<path fill-rule="evenodd" clip-rule="evenodd" d="M11.6094 1.34007C11.7125 1.34007 11.7813 1.34007 11.8844 1.37443C11.6781 1.27134 11.6094 1.34007 11.6094 1.34007Z" fill="#06579E"/>
<path fill-rule="evenodd" clip-rule="evenodd" d="M19.256 11.718C16.925 11.1681 15.2453 9.82796 14.7653 7.69742C14.114 4.77651 13.6684 1.64942 11.8516 1.37451C12.0915 1.4776 12.4686 1.82124 13.0171 2.78342C14.3883 5.12015 14.0455 8.41906 15.7252 10.1372C16.6507 11.0307 17.7134 11.4431 19.256 11.718C19.2903 11.7523 19.256 11.6836 19.256 11.718Z" fill="#014A8D"/>
<path fill-rule="evenodd" clip-rule="evenodd" d="M18.7054 18.0409C18.7054 16.8038 19.0482 15.0513 18.0198 14.1578C17.0943 13.3331 15.6545 13.0582 14.9004 11.7867C14.5233 11.1338 14.489 10.8245 14.489 10.8245L13.9062 10.3091C14.0434 12.7145 15.7916 13.3674 17.2657 14.6389C18.6369 15.8073 17.4714 18.8313 19.4596 18.9687C19.0139 18.9 18.7054 18.6594 18.7054 18.0409Z" fill="url(#paint21_linear_870_46)"/>
<path fill-rule="evenodd" clip-rule="evenodd" d="M7.53111 4.8797C5.5086 8.35042 -0.42182 6.52915 0.0238187 10.7215C-0.0104611 10.481 -0.0104611 9.45006 1.08649 8.52224C2.62909 7.21642 5.74856 7.4226 7.56539 5.32642C8.31955 4.43297 9.0737 2.81788 9.86214 2.26806C10.5477 1.78697 10.7534 1.95879 10.7534 1.95879L11.3019 1.3746C9.96498 1.03097 8.49095 3.3677 7.53111 4.8797Z" fill="#014A8D"/>
<path fill-rule="evenodd" clip-rule="evenodd" d="M11.9528 0.652949C11.3358 0.927858 10.8216 1.47768 10.7188 2.19931C11.1987 0.962222 12.8098 0.515495 13.6325 0.27495C13.4954 -0.0343228 12.3299 0.549858 11.9528 0.652949Z" fill="#014A8D"/>
<path fill-rule="evenodd" clip-rule="evenodd" d="M17.3024 4.94839C17.1653 4.32984 16.9596 3.81439 16.7539 3.36768C17.131 4.43293 17.3367 5.39511 17.4738 6.32293C17.4395 5.80748 17.4052 5.36075 17.3024 4.94839Z" fill="url(#paint22_linear_870_46)"/>
<path fill-rule="evenodd" clip-rule="evenodd" d="M17.4727 6.28857C17.6098 8.52221 17.3013 11.0651 19.2552 11.6149C17.7126 10.4809 17.8155 8.6253 17.4727 6.28857Z" fill="url(#paint23_linear_870_46)"/>
<path fill-rule="evenodd" clip-rule="evenodd" d="M16.3414 18.2815C15.8958 17.0444 14.696 16.2884 14.3532 15.0169C14.0789 13.986 14.2503 12.852 14.2503 11.8211L14.2161 10.8933L13.4962 15.876C13.4962 15.876 13.4619 16.1165 14.7645 17.7316C16.0672 19.3811 16.3414 21.6148 16.3414 21.6148C16.7185 20.7213 16.6842 19.2093 16.3414 18.2815Z" fill="url(#paint24_linear_870_46)"/>
<path fill-rule="evenodd" clip-rule="evenodd" d="M16.9577 16.8382C16.7521 14.8108 14.5924 14.1578 14.661 11.9929L14.2154 11.3057C13.9068 12.5771 14.3525 14.3297 15.1752 15.3262C15.8265 16.0478 16.3407 16.4258 16.6149 17.4224C16.8549 18.3846 16.1693 20.412 16.8892 21.168C17.2663 21.5117 17.6776 21.4429 17.8147 21.3398C15.8608 21.546 17.1291 18.4877 16.9577 16.8382Z" fill="url(#paint25_linear_870_46)"/>
<path fill-rule="evenodd" clip-rule="evenodd" d="M9.10892 6.35733C9.10892 6.08242 8.59473 5.87624 8.11481 5.87624C7.80629 5.84188 7.39493 6.04806 7.25781 5.91061C7.36065 6.35733 7.94341 6.18552 8.32049 6.15115C8.56045 6.18552 8.93753 6.25424 9.07464 6.42606L9.10892 6.35733Z" fill="url(#paint26_linear_870_46)"/>
<path fill-rule="evenodd" clip-rule="evenodd" d="M13.6313 6.59768C13.4256 6.49459 13.0485 6.35714 12.6714 6.25404C12.5343 6.18532 12.3629 6.15095 12.1915 6.15095C11.3688 6.11659 10.9232 6.52895 10.8203 6.63204C10.9574 6.59768 11.6087 6.46023 11.7459 6.46023C11.883 6.46023 12.0201 6.49459 12.1229 6.49459C12.5 6.56332 13.0142 6.94132 13.6313 6.59768Z" fill="url(#paint27_linear_870_46)"/>
<path d="M26.0769 22.8868C26.0769 22.7837 26.0707 22.6899 26.0584 22.6054C26.046 22.5229 26.0213 22.4569 25.9843 22.4074C25.9494 22.36 25.8979 22.3363 25.8301 22.3363H24.1641V22.2342C24.2422 22.2301 24.2957 22.2126 24.3245 22.1817C24.3533 22.1487 24.3687 22.1043 24.3708 22.0487C24.3749 21.9909 24.3769 21.926 24.3769 21.8538V20.5394C24.3769 20.4837 24.378 20.4363 24.38 20.3971C24.3821 20.3559 24.3841 20.3219 24.3862 20.2951C24.3492 20.2972 24.3122 20.2992 24.2751 20.3013C24.2381 20.3033 24.2011 20.3054 24.1641 20.3075V20.1714H24.8582V20.2734C24.7821 20.2755 24.7287 20.293 24.6978 20.326C24.669 20.359 24.6525 20.4033 24.6484 20.459C24.6464 20.5147 24.6454 20.5796 24.6454 20.6538V22.2126L25.4598 22.2033C25.5174 22.2012 25.5596 22.1899 25.5863 22.1693C25.6151 22.1487 25.6347 22.1198 25.645 22.0827C25.6552 22.0456 25.6604 22.0033 25.6604 21.9559V20.5394C25.6604 20.4837 25.6614 20.4363 25.6635 20.3971C25.6655 20.3559 25.6676 20.3219 25.6696 20.2951C25.6326 20.2972 25.5956 20.2992 25.5586 20.3013C25.5215 20.3033 25.4845 20.3054 25.4475 20.3075V20.1714H26.1417V20.2734C26.0656 20.2755 26.0121 20.293 25.9812 20.326C25.9524 20.359 25.936 20.4033 25.9319 20.459C25.9298 20.5147 25.9288 20.5796 25.9288 20.6538V21.9899C25.9288 22.0311 25.9278 22.0713 25.9257 22.1105C25.9257 22.1476 25.9236 22.1817 25.9195 22.2126L26.2034 22.1971V22.8868H26.0769ZM27.5516 21.5353C27.5516 21.4446 27.5393 21.3796 27.5146 21.3404C27.4899 21.3013 27.4508 21.2775 27.3973 21.2693C27.3439 21.261 27.2729 21.259 27.1845 21.2631L26.9592 21.2724V21.9806C26.9592 22.0363 26.9582 22.0837 26.9562 22.1229C26.9562 22.1621 26.9541 22.1951 26.95 22.2219L27.5393 22.2126C27.6298 22.2105 27.7079 22.1961 27.7737 22.1693C27.8395 22.1404 27.891 22.0909 27.928 22.0208C27.965 21.9507 27.9835 21.8549 27.9835 21.7332H28.0884L28.0699 22.3363H26.478V22.2342C26.5561 22.2301 26.6096 22.2126 26.6384 22.1817C26.6672 22.1487 26.6826 22.1043 26.6847 22.0487C26.6888 21.9909 26.6908 21.926 26.6908 21.8538V20.5178C26.6908 20.4765 26.6919 20.4374 26.6939 20.4002C26.696 20.3611 26.698 20.326 26.7001 20.2951C26.6631 20.2972 26.626 20.2992 26.589 20.3013C26.552 20.3033 26.515 20.3054 26.478 20.3075V20.1714H27.9619L27.9774 20.7126H27.8755C27.8755 20.591 27.857 20.4992 27.82 20.4374C27.783 20.3734 27.7326 20.3312 27.6688 20.3106C27.6071 20.2879 27.5372 20.2776 27.459 20.2796L27.1937 20.2858C27.1176 20.2879 27.0631 20.3023 27.0302 20.3291C26.9973 20.3559 26.9767 20.3961 26.9685 20.4497C26.9623 20.5013 26.9592 20.5693 26.9592 20.6538V21.1487L27.5393 21.1518L27.5177 20.8858H27.6534V21.5353H27.5516ZM28.3971 22.3363V22.2342C28.4753 22.2301 28.5288 22.2126 28.5576 22.1817C28.5864 22.1487 28.6018 22.1043 28.6039 22.0487C28.608 21.9909 28.61 21.926 28.61 21.8538V20.5178C28.61 20.4765 28.6111 20.4374 28.6131 20.4002C28.6152 20.3611 28.6172 20.326 28.6193 20.2951C28.5823 20.2972 28.5452 20.2992 28.5082 20.3013C28.4712 20.3033 28.4342 20.3054 28.3971 20.3075V20.1714H29.0913V20.2734C29.0152 20.2755 28.9617 20.293 28.9309 20.326C28.9021 20.359 28.8856 20.4033 28.8815 20.459C28.8795 20.5147 28.8784 20.5796 28.8784 20.6538V21.1672H29.9829V20.5178C29.9829 20.4765 29.984 20.4374 29.986 20.4002C29.9881 20.3611 29.9901 20.326 29.9922 20.2951C29.9552 20.2972 29.9181 20.2992 29.8811 20.3013C29.8441 20.3033 29.8071 20.3054 29.7701 20.3075V20.1714H30.4642V20.2734C30.3881 20.2755 30.3346 20.293 30.3038 20.326C30.275 20.359 30.2585 20.4033 30.2544 20.459C30.2524 20.5147 30.2513 20.5796 30.2513 20.6538V21.9683C30.2513 22.0239 30.2503 22.0724 30.2483 22.1136C30.2483 22.1528 30.2462 22.1858 30.2421 22.2126C30.2791 22.2105 30.3161 22.2085 30.3532 22.2064C30.3902 22.2043 30.4272 22.2023 30.4642 22.2002V22.3363H29.7701V22.2342C29.8482 22.2301 29.9017 22.2126 29.9305 22.1817C29.9593 22.1487 29.9747 22.1043 29.9768 22.0487C29.9809 21.9909 29.9829 21.926 29.9829 21.8538V21.2909L28.8784 21.3033V21.9683C28.8784 22.0239 28.8774 22.0724 28.8753 22.1136C28.8753 22.1528 28.8733 22.1858 28.8692 22.2126C28.9062 22.2105 28.9432 22.2085 28.9802 22.2064C29.0173 22.2043 29.0543 22.2023 29.0913 22.2002V22.3363H28.3971ZM32.4211 20.8239C32.419 20.7023 32.4067 20.6013 32.3841 20.5209C32.3614 20.4404 32.3213 20.3807 32.2637 20.3415C32.2082 20.3002 32.127 20.2807 32.02 20.2827H31.7578L31.7547 21.9683C31.7547 22.0239 31.7537 22.0724 31.7516 22.1136C31.7516 22.1528 31.7495 22.1858 31.7454 22.2126C31.7886 22.2105 31.8308 22.2085 31.8719 22.2064C31.9151 22.2043 31.9583 22.2023 32.0015 22.2002V22.3363H31.2765V22.2342C31.3546 22.2301 31.4071 22.2115 31.4338 22.1786C31.4626 22.1456 31.478 22.1012 31.4801 22.0456C31.4842 21.9878 31.4863 21.9239 31.4863 21.8538L31.4894 20.2858L31.1716 20.2889C31.042 20.2889 30.9505 20.3322 30.897 20.4188C30.8435 20.5054 30.8168 20.6404 30.8168 20.8239H30.7026L30.7211 20.1714H32.5198L32.5383 20.8239H32.4211ZM32.7779 22.2342C32.856 22.2301 32.9095 22.2126 32.9383 22.1817C32.9671 22.1487 32.9825 22.1043 32.9846 22.0487C32.9887 21.9909 32.9907 21.926 32.9907 21.8538V20.5178C32.9907 20.4765 32.9918 20.4374 32.9938 20.4002C32.9959 20.3611 32.9979 20.326 33 20.2951C32.963 20.2972 32.926 20.2992 32.8889 20.3013C32.8519 20.3033 32.8149 20.3054 32.7779 20.3075V20.1714C32.8869 20.1693 32.999 20.1683 33.1142 20.1683C33.2293 20.1662 33.3466 20.1652 33.4659 20.1652C33.6654 20.1652 33.833 20.1879 33.9688 20.2332C34.1045 20.2786 34.2084 20.3456 34.2804 20.4343C34.3524 20.5229 34.3915 20.6332 34.3976 20.7652C34.4017 20.8456 34.3894 20.9301 34.3606 21.0188C34.3339 21.1054 34.2824 21.1879 34.2063 21.2662C34.1323 21.3425 34.0274 21.4043 33.8916 21.4518C33.7559 21.4992 33.5821 21.5229 33.3702 21.5229C33.362 21.5229 33.3466 21.5229 33.3239 21.5229C33.3013 21.5229 33.2797 21.5219 33.2592 21.5198V21.9683C33.2592 22.0239 33.2581 22.0724 33.2561 22.1136C33.2561 22.1528 33.254 22.1858 33.2499 22.2126C33.2828 22.2105 33.3147 22.2085 33.3455 22.2064C33.3764 22.2043 33.4072 22.2033 33.4381 22.2033C33.471 22.2012 33.5029 22.1992 33.5337 22.1971V22.3363H32.7779V22.2342ZM33.2592 21.393C33.2982 21.3971 33.3311 21.4002 33.3579 21.4023C33.3867 21.4023 33.4206 21.4023 33.4597 21.4023C33.5769 21.4023 33.6839 21.3796 33.7806 21.3342C33.8772 21.2868 33.9544 21.2198 34.0119 21.1332C34.0695 21.0466 34.0983 20.9435 34.0983 20.8239C34.0983 20.727 34.0829 20.6446 34.052 20.5765C34.0212 20.5064 33.977 20.4508 33.9194 20.4095C33.8639 20.3662 33.797 20.3353 33.7188 20.3167C33.6407 20.2961 33.5543 20.2858 33.4597 20.2858C33.3877 20.2858 33.3373 20.3013 33.3085 20.3322C33.2818 20.3631 33.2664 20.4064 33.2622 20.4621C33.2602 20.5157 33.2592 20.5796 33.2592 20.6538V21.393ZM36.6224 22.3672C36.5319 22.161 36.4404 21.9559 36.3478 21.7518C36.2553 21.5456 36.1648 21.3373 36.0763 21.127C36.0475 21.0611 36.0187 20.9951 35.9899 20.9291C35.9632 20.8611 35.9364 20.793 35.9097 20.725C35.885 20.6569 35.8593 20.5889 35.8326 20.5209C35.8326 20.5435 35.8316 20.5662 35.8295 20.5889C35.8295 20.6116 35.8295 20.6343 35.8295 20.6569C35.8274 20.7312 35.8244 20.8209 35.8202 20.926C35.8182 21.0291 35.8151 21.1404 35.811 21.26C35.8069 21.3775 35.8038 21.4961 35.8017 21.6157C35.7997 21.7332 35.7976 21.8445 35.7956 21.9497C35.7935 21.9951 35.7914 22.0404 35.7894 22.0858C35.7894 22.1311 35.7873 22.1734 35.7832 22.2126C35.8223 22.2105 35.8603 22.2085 35.8974 22.2064C35.9364 22.2043 35.9755 22.2023 36.0146 22.2002V22.3363H35.4253V22.2342C35.4891 22.2322 35.5354 22.2188 35.5642 22.194C35.595 22.1672 35.6146 22.1322 35.6228 22.0889C35.631 22.0456 35.6362 21.9992 35.6382 21.9497L35.6968 20.5394C35.6989 20.4982 35.6999 20.4569 35.6999 20.4157C35.702 20.3745 35.704 20.3343 35.7061 20.2951C35.6691 20.2972 35.632 20.2992 35.595 20.3013C35.558 20.3013 35.521 20.3023 35.484 20.3044V20.1714H35.956L36.4866 21.3992C36.5134 21.461 36.5391 21.5229 36.5638 21.5848C36.5905 21.6466 36.6172 21.7085 36.644 21.7703C36.6728 21.8322 36.7005 21.8951 36.7273 21.959H36.7335C36.7561 21.9033 36.7828 21.8373 36.8137 21.761C36.8445 21.6827 36.8702 21.6157 36.8908 21.56C36.9813 21.3332 37.0749 21.1064 37.1716 20.8796C37.2703 20.6508 37.3669 20.4147 37.4616 20.1714H37.9182V20.2734C37.8667 20.2714 37.8246 20.2817 37.7917 20.3044C37.7588 20.325 37.7351 20.36 37.7207 20.4095C37.7063 20.459 37.7012 20.526 37.7053 20.6105L37.7855 22.0177C37.7896 22.0528 37.7917 22.0868 37.7917 22.1198C37.7917 22.1528 37.7917 22.1827 37.7917 22.2095C37.8287 22.2074 37.8657 22.2064 37.9027 22.2064C37.9418 22.2043 37.9799 22.2023 38.0169 22.2002V22.3363H37.3258V22.2342C37.3896 22.2322 37.4369 22.2167 37.4677 22.1878C37.4986 22.159 37.5171 22.1177 37.5233 22.0641C37.5315 22.0105 37.5335 21.9445 37.5294 21.8662L37.4677 20.8456C37.4657 20.8126 37.4636 20.7796 37.4616 20.7466C37.4595 20.7136 37.4574 20.6806 37.4554 20.6477C37.4533 20.6147 37.4513 20.5817 37.4492 20.5487C37.443 20.5631 37.4358 20.5786 37.4276 20.5951C37.4214 20.6116 37.4153 20.6291 37.4091 20.6477L36.7149 22.3672H36.6224ZM39.3651 21.5353C39.3651 21.4446 39.3528 21.3796 39.3281 21.3404C39.3034 21.3013 39.2643 21.2775 39.2109 21.2693C39.1574 21.261 39.0864 21.259 38.998 21.2631L38.7728 21.2724V21.9806C38.7728 22.0363 38.7717 22.0837 38.7697 22.1229C38.7697 22.1621 38.7676 22.1951 38.7635 22.2219L39.3528 22.2126C39.4433 22.2105 39.5214 22.1961 39.5873 22.1693C39.6531 22.1404 39.7045 22.0909 39.7415 22.0208C39.7785 21.9507 39.797 21.8549 39.797 21.7332H39.9019L39.8834 22.3363H38.2915V22.2342C38.3696 22.2301 38.4231 22.2126 38.4519 22.1817C38.4807 22.1487 38.4961 22.1043 38.4982 22.0487C38.5023 21.9909 38.5044 21.926 38.5044 21.8538V20.5178C38.5044 20.4765 38.5054 20.4374 38.5074 20.4002C38.5095 20.3611 38.5116 20.326 38.5136 20.2951C38.4766 20.2972 38.4396 20.2992 38.4025 20.3013C38.3655 20.3033 38.3285 20.3054 38.2915 20.3075V20.1714H39.7754L39.7909 20.7126H39.6891C39.6891 20.591 39.6706 20.4992 39.6335 20.4374C39.5965 20.3734 39.5461 20.3312 39.4824 20.3106C39.4207 20.2879 39.3507 20.2776 39.2726 20.2796L39.0072 20.2858C38.9311 20.2879 38.8766 20.3023 38.8437 20.3291C38.8108 20.3559 38.7902 20.3961 38.782 20.4497C38.7758 20.5013 38.7728 20.5693 38.7728 20.6538V21.1487L39.3528 21.1518L39.3312 20.8858H39.4669V21.5353H39.3651ZM40.1244 22.8868V22.2126H40.2417C40.3178 22.2126 40.3825 22.1837 40.436 22.126C40.4916 22.0662 40.5378 21.9858 40.5749 21.8848C40.6119 21.7837 40.6417 21.6683 40.6643 21.5384C40.6869 21.4085 40.7034 21.2724 40.7137 21.1301C40.726 20.9858 40.7353 20.8425 40.7415 20.7002C40.7476 20.5559 40.7517 20.4209 40.7538 20.2951H40.6798L40.4545 20.3075V20.1714H42.0311V20.2734C41.955 20.2755 41.9015 20.293 41.8706 20.326C41.8418 20.359 41.8254 20.4033 41.8213 20.459C41.8192 20.5147 41.8182 20.5796 41.8182 20.6538V21.9683C41.8182 22.0239 41.8172 22.0724 41.8151 22.1136C41.8151 22.1528 41.813 22.1858 41.8089 22.2126H42.0773V22.8868H41.9478C41.9478 22.7095 41.9303 22.5734 41.8953 22.4786C41.8624 22.3837 41.7945 22.3363 41.6917 22.3363H40.507C40.4062 22.3363 40.3383 22.3837 40.3034 22.4786C40.2684 22.5734 40.2509 22.7095 40.2509 22.8868H40.1244ZM40.5409 22.2126H41.3369C41.4151 22.2126 41.4685 22.1981 41.4973 22.1693C41.5261 22.1404 41.5415 22.0992 41.5436 22.0456C41.5477 21.9899 41.5498 21.926 41.5498 21.8538V20.292L41.0654 20.2951C41.0078 20.2992 40.9656 20.3157 40.9389 20.3446C40.9142 20.3734 40.9009 20.4105 40.8988 20.4559C40.8926 20.6044 40.8834 20.7642 40.871 20.9353C40.8587 21.1044 40.8402 21.2714 40.8155 21.4363C40.7908 21.6012 40.7569 21.7518 40.7137 21.8878C40.6705 22.0239 40.6129 22.1322 40.5409 22.2126ZM43.0379 20.2734C42.9618 20.2755 42.9083 20.293 42.8774 20.326C42.8486 20.359 42.8322 20.4033 42.8281 20.459C42.826 20.5147 42.825 20.5796 42.825 20.6538V21.9683C42.825 22.0239 42.824 22.0724 42.8219 22.1136C42.8219 22.1528 42.8198 22.1858 42.8157 22.2126C42.8528 22.2105 42.8898 22.2085 42.9268 22.2064C42.9638 22.2043 43.0008 22.2023 43.0379 22.2002V22.3363H42.3437V22.2342C42.4219 22.2301 42.4753 22.2126 42.5041 22.1817C42.5329 22.1487 42.5483 22.1043 42.5504 22.0487C42.5545 21.9909 42.5566 21.926 42.5566 21.8538V20.5178C42.5566 20.4765 42.5576 20.4374 42.5597 20.4002C42.5617 20.3611 42.5638 20.326 42.5658 20.2951C42.5288 20.2972 42.4918 20.2992 42.4548 20.3013C42.4177 20.3033 42.3807 20.3054 42.3437 20.3075V20.1714H43.0379V20.2734ZM44.4416 20.2734C44.3655 20.2755 44.312 20.293 44.2812 20.326C44.2524 20.359 44.2359 20.4033 44.2318 20.459C44.2298 20.5147 44.2287 20.5796 44.2287 20.6538V21.9683C44.2287 22.0239 44.2277 22.0724 44.2257 22.1136C44.2257 22.1528 44.2236 22.1858 44.2195 22.2126C44.2565 22.2105 44.2935 22.2085 44.3306 22.2064C44.3676 22.2043 44.4046 22.2023 44.4416 22.2002V22.3363H43.7475V22.2342C43.8256 22.2301 43.8791 22.2126 43.9079 22.1817C43.9367 22.1487 43.9521 22.1043 43.9542 22.0487C43.9583 21.9909 43.9603 21.926 43.9603 21.8538V20.5178C43.9603 20.4765 43.9614 20.4374 43.9634 20.4002C43.9655 20.3611 43.9675 20.326 43.9696 20.2951C43.9326 20.2972 43.8955 20.2992 43.8585 20.3013C43.8215 20.3033 43.7845 20.3054 43.7475 20.3075V20.1714H44.4416V20.2734ZM44.0375 20.3229L44.1238 20.4064L42.7108 22.1755L42.6152 22.0858L44.0375 20.3229ZM46.6941 22.8868C46.6941 22.7837 46.688 22.6899 46.6756 22.6054C46.6633 22.5229 46.6386 22.4569 46.6016 22.4074C46.5666 22.36 46.5152 22.3363 46.4473 22.3363H44.7813V22.2342C44.8595 22.2301 44.913 22.2126 44.9418 22.1817C44.9706 22.1487 44.986 22.1043 44.988 22.0487C44.9922 21.9909 44.9942 21.926 44.9942 21.8538V20.5394C44.9942 20.4837 44.9952 20.4363 44.9973 20.3971C44.9994 20.3559 45.0014 20.3219 45.0035 20.2951C44.9664 20.2972 44.9294 20.2992 44.8924 20.3013C44.8554 20.3033 44.8184 20.3054 44.7813 20.3075V20.1714H45.4755V20.2734C45.3994 20.2755 45.3459 20.293 45.3151 20.326C45.2863 20.359 45.2698 20.4033 45.2657 20.459C45.2637 20.5147 45.2626 20.5796 45.2626 20.6538V22.2126L46.0771 22.2033C46.1347 22.2012 46.1769 22.1899 46.2036 22.1693C46.2324 22.1487 46.2519 22.1198 46.2622 22.0827C46.2725 22.0456 46.2776 22.0033 46.2776 21.9559V20.5394C46.2776 20.4837 46.2787 20.4363 46.2807 20.3971C46.2828 20.3559 46.2849 20.3219 46.2869 20.2951C46.2499 20.2972 46.2129 20.2992 46.1758 20.3013C46.1388 20.3033 46.1018 20.3054 46.0648 20.3075V20.1714H46.7589V20.2734C46.6828 20.2755 46.6294 20.293 46.5985 20.326C46.5697 20.359 46.5533 20.4033 46.5491 20.459C46.5471 20.5147 46.5461 20.5796 46.5461 20.6538V21.9899C46.5461 22.0311 46.545 22.0713 46.543 22.1105C46.543 22.1476 46.5409 22.1817 46.5368 22.2126L46.8206 22.1971V22.8868H46.6941ZM47.7894 20.2734C47.7133 20.2755 47.6598 20.293 47.629 20.326C47.6002 20.359 47.5837 20.4033 47.5796 20.459C47.5775 20.5147 47.5765 20.5796 47.5765 20.6538V21.9683C47.5765 22.0239 47.5755 22.0724 47.5734 22.1136C47.5734 22.1528 47.5714 22.1858 47.5673 22.2126C47.6043 22.2105 47.6413 22.2085 47.6783 22.2064C47.7153 22.2043 47.7524 22.2023 47.7894 22.2002V22.3363H47.0952V22.2342C47.1734 22.2301 47.2269 22.2126 47.2557 22.1817C47.2844 22.1487 47.2999 22.1043 47.3019 22.0487C47.306 21.9909 47.3081 21.926 47.3081 21.8538V20.5178C47.3081 20.4765 47.3091 20.4374 47.3112 20.4002C47.3132 20.3611 47.3153 20.326 47.3174 20.2951C47.2803 20.2972 47.2433 20.2992 47.2063 20.3013C47.1693 20.3033 47.1322 20.3054 47.0952 20.3075V20.1714H47.7894V20.2734ZM49.1932 20.2734C49.1171 20.2755 49.0636 20.293 49.0327 20.326C49.0039 20.359 48.9875 20.4033 48.9834 20.459C48.9813 20.5147 48.9803 20.5796 48.9803 20.6538V21.9683C48.9803 22.0239 48.9792 22.0724 48.9772 22.1136C48.9772 22.1528 48.9751 22.1858 48.971 22.2126C49.008 22.2105 49.0451 22.2085 49.0821 22.2064C49.1191 22.2043 49.1561 22.2023 49.1932 22.2002V22.3363H48.499V22.2342C48.5771 22.2301 48.6306 22.2126 48.6594 22.1817C48.6882 22.1487 48.7036 22.1043 48.7057 22.0487C48.7098 21.9909 48.7119 21.926 48.7119 21.8538V20.5178C48.7119 20.4765 48.7129 20.4374 48.7149 20.4002C48.717 20.3611 48.7191 20.326 48.7211 20.2951C48.6841 20.2972 48.6471 20.2992 48.6101 20.3013C48.573 20.3033 48.536 20.3054 48.499 20.3075V20.1714H49.1932V20.2734ZM48.789 20.3229L48.8754 20.4064L47.4624 22.1755L47.3667 22.0858L48.789 20.3229ZM49.5325 22.3363V22.2342C49.6107 22.2301 49.6642 22.2126 49.6929 22.1817C49.7217 22.1487 49.7372 22.1043 49.7392 22.0487C49.7433 21.9909 49.7454 21.926 49.7454 21.8538V20.5178C49.7454 20.4765 49.7464 20.4374 49.7485 20.4002C49.7505 20.3611 49.7526 20.326 49.7547 20.2951C49.7176 20.2972 49.6806 20.2992 49.6436 20.3013C49.6066 20.3033 49.5695 20.3054 49.5325 20.3075V20.1714H50.2267V20.2734C50.1506 20.2755 50.0971 20.293 50.0663 20.326C50.0375 20.359 50.021 20.4033 50.0169 20.459C50.0148 20.5147 50.0138 20.5796 50.0138 20.6538V21.1672H51.1183V20.5178C51.1183 20.4765 51.1193 20.4374 51.1214 20.4002C51.1235 20.3611 51.1255 20.326 51.1276 20.2951C51.0905 20.2972 51.0535 20.2992 51.0165 20.3013C50.9795 20.3033 50.9425 20.3054 50.9054 20.3075V20.1714H51.5996V20.2734C51.5235 20.2755 51.47 20.293 51.4392 20.326C51.4104 20.359 51.3939 20.4033 51.3898 20.459C51.3878 20.5147 51.3867 20.5796 51.3867 20.6538V21.9683C51.3867 22.0239 51.3857 22.0724 51.3836 22.1136C51.3836 22.1528 51.3816 22.1858 51.3775 22.2126C51.4145 22.2105 51.4515 22.2085 51.4885 22.2064C51.5256 22.2043 51.5626 22.2023 51.5996 22.2002V22.3363H50.9054V22.2342C50.9836 22.2301 51.0371 22.2126 51.0659 22.1817C51.0947 22.1487 51.1101 22.1043 51.1121 22.0487C51.1162 21.9909 51.1183 21.926 51.1183 21.8538V21.2909L50.0138 21.3033V21.9683C50.0138 22.0239 50.0128 22.0724 50.0107 22.1136C50.0107 22.1528 50.0087 22.1858 50.0046 22.2126C50.0416 22.2105 50.0786 22.2085 50.1156 22.2064C50.1526 22.2043 50.1897 22.2023 50.2267 22.2002V22.3363H49.5325ZM53.6187 20.8611C53.5981 20.6672 53.5302 20.5167 53.4151 20.4095C53.3019 20.3023 53.1559 20.2487 52.977 20.2487C52.868 20.2487 52.7651 20.2724 52.6684 20.3198C52.5738 20.3652 52.4905 20.4312 52.4185 20.5178C52.3466 20.6044 52.29 20.7085 52.2489 20.8301C52.2077 20.9518 52.1872 21.0889 52.1872 21.2415C52.1872 21.4353 52.2242 21.6064 52.2982 21.7549C52.3723 21.9033 52.472 22.0188 52.5975 22.1012C52.7229 22.1837 52.8618 22.225 53.014 22.225C53.1477 22.225 53.2793 22.1951 53.4089 22.1353C53.5385 22.0734 53.6444 21.9847 53.7267 21.8693L53.8069 21.9342C53.7184 22.0559 53.6228 22.1497 53.52 22.2157C53.4171 22.2817 53.3143 22.326 53.2114 22.3487C53.1107 22.3734 53.0181 22.3858 52.9338 22.3858C52.7795 22.3858 52.6376 22.3579 52.508 22.3023C52.3805 22.2466 52.2694 22.1693 52.1748 22.0703C52.0823 21.9693 52.0103 21.8528 51.9588 21.7208C51.9095 21.5868 51.8848 21.4425 51.8848 21.2879C51.8848 21.1415 51.9064 20.9992 51.9496 20.8611C51.9948 20.7229 52.0617 20.5982 52.1501 20.4868C52.2386 20.3755 52.3496 20.2868 52.4833 20.2209C52.6191 20.1549 52.7764 20.1219 52.9554 20.1219C53.0705 20.1219 53.1796 20.1374 53.2824 20.1683C53.3852 20.1992 53.484 20.2466 53.5786 20.3106L53.5631 20.1435H53.7297V20.8611H53.6187ZM54.0698 22.3363V22.2342C54.148 22.2301 54.2014 22.2126 54.2302 22.1817C54.259 22.1487 54.2745 22.1043 54.2765 22.0487C54.2806 21.9909 54.2827 21.926 54.2827 21.8538V20.5178C54.2827 20.4765 54.2837 20.4374 54.2858 20.4002C54.2878 20.3611 54.2899 20.326 54.2919 20.2951C54.2549 20.2972 54.2179 20.2992 54.1809 20.3013C54.1438 20.3033 54.1068 20.3054 54.0698 20.3075V20.1714H54.764V20.2734C54.6879 20.2755 54.6344 20.293 54.6035 20.326C54.5747 20.359 54.5583 20.4033 54.5542 20.459C54.5521 20.5147 54.5511 20.5796 54.5511 20.6538V21.1611H54.7825L55.1681 20.5518C55.1949 20.5105 55.2278 20.4652 55.2669 20.4157C55.3059 20.3662 55.346 20.325 55.3872 20.292C55.3563 20.2941 55.3244 20.2951 55.2915 20.2951C55.2607 20.2951 55.2298 20.2961 55.199 20.2982V20.1714H55.8623V20.2734C55.7759 20.2796 55.6988 20.2941 55.6309 20.3167C55.563 20.3394 55.4982 20.3796 55.4365 20.4374C55.3748 20.493 55.309 20.5776 55.2391 20.691L54.9367 21.1734C54.9964 21.2085 55.0447 21.2497 55.0817 21.2971C55.1188 21.3425 55.1558 21.3889 55.1928 21.4363L55.5384 21.8971C55.6165 22.0002 55.6803 22.0765 55.7296 22.126C55.7811 22.1734 55.8263 22.2033 55.8654 22.2157C55.9065 22.228 55.9487 22.2342 55.9919 22.2342V22.3363H55.6155C55.5949 22.3363 55.5671 22.3219 55.5322 22.293C55.4993 22.2641 55.4633 22.227 55.4242 22.1817C55.3851 22.1342 55.345 22.0847 55.3039 22.0332L54.9337 21.5322C54.8946 21.4806 54.8555 21.4322 54.8164 21.3868C54.7773 21.3394 54.7393 21.3043 54.7023 21.2817L54.5511 21.2848V21.9683C54.5511 22.0239 54.5501 22.0724 54.548 22.1136C54.548 22.1528 54.5459 22.1858 54.5418 22.2126C54.5789 22.2105 54.6159 22.2085 54.6529 22.2064C54.6899 22.2043 54.7269 22.2023 54.764 22.2002V22.3363H54.0698ZM57.1711 22.3858C56.9757 22.3858 56.8081 22.3528 56.6682 22.2868C56.5284 22.2208 56.4142 22.1332 56.3258 22.0239C56.2394 21.9126 56.1756 21.7899 56.1345 21.6559C56.0933 21.5219 56.0728 21.3879 56.0728 21.2538C56.0728 21.1239 56.0944 20.993 56.1376 20.8611C56.1808 20.727 56.2466 20.6044 56.335 20.493C56.4255 20.3817 56.5376 20.292 56.6713 20.224C56.807 20.1559 56.9654 20.1219 57.1464 20.1219C57.3356 20.1219 57.4992 20.1559 57.637 20.224C57.7748 20.292 57.8879 20.3827 57.9763 20.4961C58.0668 20.6075 58.1337 20.7291 58.1769 20.8611C58.2221 20.993 58.2447 21.1239 58.2447 21.2538C58.2447 21.3817 58.2232 21.5126 58.18 21.6466C58.1368 21.7786 58.0699 21.9012 57.9794 22.0146C57.891 22.126 57.7799 22.2157 57.6462 22.2837C57.5125 22.3518 57.3542 22.3858 57.1711 22.3858ZM57.1773 22.259C57.3048 22.259 57.4159 22.2322 57.5105 22.1786C57.6051 22.1229 57.6832 22.0497 57.7449 21.959C57.8087 21.8662 57.856 21.7641 57.8869 21.6528C57.9198 21.5394 57.9362 21.426 57.9362 21.3126C57.9362 21.1848 57.9187 21.058 57.8838 20.9322C57.8488 20.8064 57.7974 20.692 57.7295 20.5889C57.6616 20.4858 57.5773 20.4033 57.4765 20.3415C57.3778 20.2776 57.2647 20.2456 57.1372 20.2456C57.0096 20.2456 56.8975 20.2734 56.8009 20.3291C56.7063 20.3848 56.6271 20.459 56.5633 20.5518C56.5016 20.6425 56.4543 20.7446 56.4214 20.858C56.3905 20.9693 56.3751 21.0827 56.3751 21.1982C56.3751 21.3116 56.3905 21.4301 56.4214 21.5538C56.4543 21.6775 56.5037 21.793 56.5695 21.9002C56.6353 22.0074 56.7186 22.094 56.8194 22.16C56.9202 22.226 57.0395 22.259 57.1773 22.259ZM59.2169 20.2734C59.1408 20.2755 59.0873 20.293 59.0565 20.326C59.0277 20.359 59.0112 20.4033 59.0071 20.459C59.0051 20.5147 59.004 20.5796 59.004 20.6538V21.9683C59.004 22.0239 59.003 22.0724 59.001 22.1136C59.001 22.1528 58.9989 22.1858 58.9948 22.2126C59.0318 22.2105 59.0688 22.2085 59.1059 22.2064C59.1429 22.2043 59.1799 22.2023 59.2169 22.2002V22.3363H58.5228V22.2342C58.6009 22.2301 58.6544 22.2126 58.6832 22.1817C58.712 22.1487 58.7274 22.1043 58.7295 22.0487C58.7336 21.9909 58.7356 21.926 58.7356 21.8538V20.5178C58.7356 20.4765 58.7367 20.4374 58.7387 20.4002C58.7408 20.3611 58.7428 20.326 58.7449 20.2951C58.7079 20.2972 58.6708 20.2992 58.6338 20.3013C58.5968 20.3033 58.5598 20.3054 58.5228 20.3075V20.1714H59.2169V20.2734ZM60.6207 20.2734C60.5446 20.2755 60.4911 20.293 60.4603 20.326C60.4315 20.359 60.415 20.4033 60.4109 20.459C60.4088 20.5147 60.4078 20.5796 60.4078 20.6538V21.9683C60.4078 22.0239 60.4068 22.0724 60.4047 22.1136C60.4047 22.1528 60.4027 22.1858 60.3986 22.2126C60.4356 22.2105 60.4726 22.2085 60.5096 22.2064C60.5466 22.2043 60.5837 22.2023 60.6207 22.2002V22.3363H59.9265V22.2342C60.0047 22.2301 60.0581 22.2126 60.0869 22.1817C60.1157 22.1487 60.1312 22.1043 60.1332 22.0487C60.1373 21.9909 60.1394 21.926 60.1394 21.8538V20.5178C60.1394 20.4765 60.1404 20.4374 60.1425 20.4002C60.1445 20.3611 60.1466 20.326 60.1487 20.2951C60.1116 20.2972 60.0746 20.2992 60.0376 20.3013C60.0006 20.3033 59.9635 20.3054 59.9265 20.3075V20.1714H60.6207V20.2734ZM60.2165 20.3229L60.3029 20.4064L58.8899 22.1755L58.7943 22.0858L60.2165 20.3229ZM59.2354 19.5621C59.2745 19.56 59.3033 19.5673 59.3218 19.5838C59.3424 19.6003 59.3568 19.6198 59.365 19.6425C59.3732 19.6631 59.3774 19.6817 59.3774 19.6982C59.3774 19.7188 59.3743 19.7405 59.3681 19.7631C59.364 19.7858 59.3568 19.8064 59.3465 19.825C59.3753 19.8539 59.4072 19.8745 59.4421 19.8868C59.4792 19.8972 59.5244 19.9023 59.5779 19.9023C59.6314 19.9023 59.6766 19.8972 59.7136 19.8868C59.7507 19.8745 59.7825 19.8539 59.8093 19.825C59.7867 19.7858 59.7753 19.7436 59.7753 19.6982C59.7753 19.6817 59.7795 19.6631 59.7877 19.6425C59.7959 19.6198 59.8103 19.6003 59.8309 19.5838C59.8535 19.5673 59.8833 19.56 59.9203 19.5621C59.9615 19.5642 59.9934 19.5807 60.016 19.6116C60.0407 19.6425 60.053 19.6786 60.053 19.7198C60.053 19.7796 60.0314 19.8322 59.9882 19.8776C59.945 19.9229 59.8874 19.958 59.8154 19.9827C59.7435 20.0054 59.6643 20.0167 59.5779 20.0167C59.4915 20.0167 59.4123 20.0054 59.3403 19.9827C59.2683 19.958 59.2108 19.9229 59.1676 19.8776C59.1244 19.8322 59.1028 19.7796 59.1028 19.7198C59.1028 19.6786 59.1141 19.6425 59.1367 19.6116C59.1614 19.5807 59.1943 19.5642 59.2354 19.5621ZM61.7708 22.3363V22.2342C61.8489 22.2301 61.9024 22.2126 61.9312 22.1817C61.96 22.1487 61.9754 22.1043 61.9775 22.0487C61.9816 21.9909 61.9837 21.926 61.9837 21.8538V20.5178C61.9837 20.4765 61.9847 20.4374 61.9867 20.4002C61.9888 20.3611 61.9908 20.326 61.9929 20.2951C61.9559 20.2972 61.9189 20.2992 61.8818 20.3013C61.8448 20.3033 61.8078 20.3054 61.7708 20.3075V20.1714H62.4649V20.2734C62.3888 20.2755 62.3354 20.293 62.3045 20.326C62.2757 20.359 62.2593 20.4033 62.2551 20.459C62.2531 20.5147 62.2521 20.5796 62.2521 20.6538V21.1611H62.4835L62.8691 20.5518C62.8958 20.5105 62.9287 20.4652 62.9678 20.4157C63.0069 20.3662 63.047 20.325 63.0881 20.292C63.0573 20.2941 63.0254 20.2951 62.9925 20.2951C62.9617 20.2951 62.9308 20.2961 62.9 20.2982V20.1714H63.5633V20.2734C63.4769 20.2796 63.3997 20.2941 63.3319 20.3167C63.264 20.3394 63.1992 20.3796 63.1375 20.4374C63.0758 20.493 63.01 20.5776 62.9401 20.691L62.6377 21.1734C62.6974 21.2085 62.7457 21.2497 62.7827 21.2971C62.8197 21.3425 62.8568 21.3889 62.8938 21.4363L63.2393 21.8971C63.3175 22.0002 63.3812 22.0765 63.4306 22.126C63.482 22.1734 63.5273 22.2033 63.5663 22.2157C63.6075 22.228 63.6497 22.2342 63.6928 22.2342V22.3363H63.3164C63.2959 22.3363 63.2681 22.3219 63.2332 22.293C63.2002 22.2641 63.1642 22.227 63.1252 22.1817C63.0861 22.1342 63.046 22.0847 63.0048 22.0332L62.6346 21.5322C62.5955 21.4806 62.5565 21.4322 62.5174 21.3868C62.4783 21.3394 62.4403 21.3043 62.4032 21.2817L62.2521 21.2848V21.9683C62.2521 22.0239 62.251 22.0724 62.249 22.1136C62.249 22.1528 62.2469 22.1858 62.2428 22.2126C62.2798 22.2105 62.3168 22.2085 62.3539 22.2064C62.3909 22.2043 62.4279 22.2023 62.4649 22.2002V22.3363H61.7708ZM64.8721 22.3858C64.6767 22.3858 64.509 22.3528 64.3692 22.2868C64.2293 22.2208 64.1152 22.1332 64.0267 22.0239C63.9403 21.9126 63.8766 21.7899 63.8354 21.6559C63.7943 21.5219 63.7737 21.3879 63.7737 21.2538C63.7737 21.1239 63.7953 20.993 63.8385 20.8611C63.8817 20.727 63.9475 20.6044 64.036 20.493C64.1265 20.3817 64.2386 20.292 64.3723 20.224C64.508 20.1559 64.6664 20.1219 64.8474 20.1219C65.0366 20.1219 65.2001 20.1559 65.3379 20.224C65.4757 20.292 65.5889 20.3827 65.6773 20.4961C65.7678 20.6075 65.8346 20.7291 65.8778 20.8611C65.9231 20.993 65.9457 21.1239 65.9457 21.2538C65.9457 21.3817 65.9241 21.5126 65.8809 21.6466C65.8377 21.7786 65.7709 21.9012 65.6804 22.0146C65.5919 22.126 65.4809 22.2157 65.3472 22.2837C65.2135 22.3518 65.0551 22.3858 64.8721 22.3858ZM64.8782 22.259C65.0058 22.259 65.1168 22.2322 65.2114 22.1786C65.3061 22.1229 65.3842 22.0497 65.4459 21.959C65.5097 21.8662 65.557 21.7641 65.5878 21.6528C65.6207 21.5394 65.6372 21.426 65.6372 21.3126C65.6372 21.1848 65.6197 21.058 65.5847 20.9322C65.5498 20.8064 65.4984 20.692 65.4305 20.5889C65.3626 20.4858 65.2783 20.4033 65.1775 20.3415C65.0788 20.2776 64.9657 20.2456 64.8381 20.2456C64.7106 20.2456 64.5985 20.2734 64.5019 20.3291C64.4072 20.3848 64.328 20.459 64.2643 20.5518C64.2026 20.6425 64.1553 20.7446 64.1224 20.858C64.0915 20.9693 64.0761 21.0827 64.0761 21.1982C64.0761 21.3116 64.0915 21.4301 64.1224 21.5538C64.1553 21.6775 64.2046 21.793 64.2705 21.9002C64.3363 22.0074 64.4196 22.094 64.5204 22.16C64.6211 22.226 64.7404 22.259 64.8782 22.259ZM67.9569 20.8611C67.9363 20.6672 67.8685 20.5167 67.7533 20.4095C67.6402 20.3023 67.4941 20.2487 67.3152 20.2487C67.2062 20.2487 67.1033 20.2724 67.0067 20.3198C66.9121 20.3652 66.8288 20.4312 66.7568 20.5178C66.6848 20.6044 66.6282 20.7085 66.5871 20.8301C66.546 20.9518 66.5254 21.0889 66.5254 21.2415C66.5254 21.4353 66.5624 21.6064 66.6365 21.7549C66.7105 21.9033 66.8103 22.0188 66.9357 22.1012C67.0612 22.1837 67.2 22.225 67.3522 22.225C67.4859 22.225 67.6175 22.1951 67.7471 22.1353C67.8767 22.0734 67.9826 21.9847 68.0649 21.8693L68.1451 21.9342C68.0567 22.0559 67.961 22.1497 67.8582 22.2157C67.7553 22.2817 67.6525 22.326 67.5497 22.3487C67.4489 22.3734 67.3563 22.3858 67.272 22.3858C67.1177 22.3858 66.9758 22.3579 66.8462 22.3023C66.7187 22.2466 66.6077 22.1693 66.513 22.0703C66.4205 21.9693 66.3485 21.8528 66.2971 21.7208C66.2477 21.5868 66.223 21.4425 66.223 21.2879C66.223 21.1415 66.2446 20.9992 66.2878 20.8611C66.3331 20.7229 66.3999 20.5982 66.4884 20.4868C66.5768 20.3755 66.6879 20.2868 66.8216 20.2209C66.9573 20.1549 67.1147 20.1219 67.2936 20.1219C67.4088 20.1219 67.5178 20.1374 67.6206 20.1683C67.7235 20.1992 67.8222 20.2466 67.9168 20.3106L67.9014 20.1435H68.068V20.8611H67.9569ZM69.5711 22.3672C69.4807 22.161 69.3891 21.9559 69.2966 21.7518C69.204 21.5456 69.1135 21.3373 69.0251 21.127C68.9963 21.0611 68.9675 20.9951 68.9387 20.9291C68.9119 20.8611 68.8852 20.793 68.8585 20.725C68.8338 20.6569 68.8081 20.5889 68.7813 20.5209C68.7813 20.5435 68.7803 20.5662 68.7783 20.5889C68.7783 20.6116 68.7783 20.6343 68.7783 20.6569C68.7762 20.7312 68.7731 20.8209 68.769 20.926C68.7669 21.0291 68.7639 21.1404 68.7597 21.26C68.7556 21.3775 68.7526 21.4961 68.7505 21.6157C68.7484 21.7332 68.7464 21.8445 68.7443 21.9497C68.7423 21.9951 68.7402 22.0404 68.7382 22.0858C68.7382 22.1311 68.7361 22.1734 68.732 22.2126C68.7711 22.2105 68.8091 22.2085 68.8461 22.2064C68.8852 22.2043 68.9243 22.2023 68.9634 22.2002V22.3363H68.3741V22.2342C68.4379 22.2322 68.4841 22.2188 68.5129 22.194C68.5438 22.1672 68.5633 22.1322 68.5716 22.0889C68.5798 22.0456 68.5849 21.9992 68.587 21.9497L68.6456 20.5394C68.6477 20.4982 68.6487 20.4569 68.6487 20.4157C68.6507 20.3745 68.6528 20.3343 68.6548 20.2951C68.6178 20.2972 68.5808 20.2992 68.5438 20.3013C68.5068 20.3013 68.4697 20.3023 68.4327 20.3044V20.1714H68.9047L69.4354 21.3992C69.4621 21.461 69.4879 21.5229 69.5125 21.5848C69.5393 21.6466 69.566 21.7085 69.5928 21.7703C69.6215 21.8322 69.6493 21.8951 69.676 21.959H69.6822C69.7048 21.9033 69.7316 21.8373 69.7624 21.761C69.7933 21.6827 69.819 21.6157 69.8396 21.56C69.9301 21.3332 70.0237 21.1064 70.1203 20.8796C70.219 20.6508 70.3157 20.4147 70.4103 20.1714H70.8669V20.2734C70.8155 20.2714 70.7733 20.2817 70.7404 20.3044C70.7075 20.325 70.6839 20.36 70.6695 20.4095C70.6551 20.459 70.6499 20.526 70.654 20.6105L70.7343 22.0177C70.7384 22.0528 70.7404 22.0868 70.7404 22.1198C70.7404 22.1528 70.7404 22.1827 70.7404 22.2095C70.7775 22.2074 70.8145 22.2064 70.8515 22.2064C70.8906 22.2043 70.9286 22.2023 70.9657 22.2002V22.3363H70.2746V22.2342C70.3383 22.2322 70.3856 22.2167 70.4165 22.1878C70.4473 22.159 70.4659 22.1177 70.472 22.0641C70.4802 22.0105 70.4823 21.9445 70.4782 21.8662L70.4165 20.8456C70.4144 20.8126 70.4124 20.7796 70.4103 20.7466C70.4083 20.7136 70.4062 20.6806 70.4041 20.6477C70.4021 20.6147 70.4 20.5817 70.398 20.5487C70.3918 20.5631 70.3846 20.5786 70.3764 20.5951C70.3702 20.6116 70.364 20.6291 70.3579 20.6477L69.6637 22.3672H69.5711ZM72.3139 21.5353C72.3139 21.4446 72.3015 21.3796 72.2769 21.3404C72.2522 21.3013 72.2131 21.2775 72.1596 21.2693C72.1061 21.261 72.0352 21.259 71.9467 21.2631L71.7215 21.2724V21.9806C71.7215 22.0363 71.7205 22.0837 71.7184 22.1229C71.7184 22.1621 71.7164 22.1951 71.7123 22.2219L72.3015 22.2126C72.392 22.2105 72.4702 22.1961 72.536 22.1693C72.6018 22.1404 72.6533 22.0909 72.6903 22.0208C72.7273 21.9507 72.7458 21.8549 72.7458 21.7332H72.8507L72.8322 22.3363H71.2402V22.2342C71.3184 22.2301 71.3719 22.2126 71.4007 22.1817C71.4295 22.1487 71.4449 22.1043 71.4469 22.0487C71.4511 21.9909 71.4531 21.926 71.4531 21.8538V20.5178C71.4531 20.4765 71.4541 20.4374 71.4562 20.4002C71.4583 20.3611 71.4603 20.326 71.4624 20.2951C71.4253 20.2972 71.3883 20.2992 71.3513 20.3013C71.3143 20.3033 71.2773 20.3054 71.2402 20.3075V20.1714H72.7242L72.7396 20.7126H72.6378C72.6378 20.591 72.6193 20.4992 72.5823 20.4374C72.5453 20.3734 72.4949 20.3312 72.4311 20.3106C72.3694 20.2879 72.2995 20.2776 72.2213 20.2796L71.956 20.2858C71.8799 20.2879 71.8254 20.3023 71.7925 20.3291C71.7596 20.3559 71.739 20.3961 71.7308 20.4497C71.7246 20.5013 71.7215 20.5693 71.7215 20.6538V21.1487L72.3015 21.1518L72.2799 20.8858H72.4157V21.5353H72.3139ZM74.7762 20.8239C74.7742 20.7023 74.7618 20.6013 74.7392 20.5209C74.7166 20.4404 74.6764 20.3807 74.6189 20.3415C74.5633 20.3002 74.4821 20.2807 74.3751 20.2827H74.1129L74.1098 21.9683C74.1098 22.0239 74.1088 22.0724 74.1067 22.1136C74.1067 22.1528 74.1047 22.1858 74.1006 22.2126C74.1437 22.2105 74.1859 22.2085 74.227 22.2064C74.2702 22.2043 74.3134 22.2023 74.3566 22.2002V22.3363H73.6316V22.2342C73.7098 22.2301 73.7622 22.2115 73.7889 22.1786C73.8177 22.1456 73.8332 22.1012 73.8352 22.0456C73.8393 21.9878 73.8414 21.9239 73.8414 21.8538L73.8445 20.2858L73.5267 20.2889C73.3971 20.2889 73.3056 20.3322 73.2521 20.4188C73.1986 20.5054 73.1719 20.6404 73.1719 20.8239H73.0578L73.0763 20.1714H74.8749L74.8934 20.8239H74.7762ZM76.2036 22.3858C76.0082 22.3858 75.8406 22.3528 75.7007 22.2868C75.5609 22.2208 75.4467 22.1332 75.3583 22.0239C75.2719 21.9126 75.2081 21.7899 75.167 21.6559C75.1259 21.5219 75.1053 21.3879 75.1053 21.2538C75.1053 21.1239 75.1269 20.993 75.1701 20.8611C75.2133 20.727 75.2791 20.6044 75.3675 20.493C75.458 20.3817 75.5701 20.292 75.7038 20.224C75.8396 20.1559 75.9979 20.1219 76.1789 20.1219C76.3682 20.1219 76.5317 20.1559 76.6695 20.224C76.8073 20.292 76.9204 20.3827 77.0088 20.4961C77.0993 20.6075 77.1662 20.7291 77.2094 20.8611C77.2546 20.993 77.2773 21.1239 77.2773 21.2538C77.2773 21.3817 77.2557 21.5126 77.2125 21.6466C77.1693 21.7786 77.1024 21.9012 77.0119 22.0146C76.9235 22.126 76.8124 22.2157 76.6787 22.2837C76.545 22.3518 76.3867 22.3858 76.2036 22.3858ZM76.2098 22.259C76.3373 22.259 76.4484 22.2322 76.543 22.1786C76.6376 22.1229 76.7158 22.0497 76.7775 21.959C76.8412 21.8662 76.8885 21.7641 76.9194 21.6528C76.9523 21.5394 76.9687 21.426 76.9687 21.3126C76.9687 21.1848 76.9513 21.058 76.9163 20.9322C76.8813 20.8064 76.8299 20.692 76.762 20.5889C76.6942 20.4858 76.6098 20.4033 76.5091 20.3415C76.4103 20.2776 76.2972 20.2456 76.1697 20.2456C76.0422 20.2456 75.9301 20.2734 75.8334 20.3291C75.7388 20.3848 75.6596 20.459 75.5958 20.5518C75.5341 20.6425 75.4868 20.7446 75.4539 20.858C75.4231 20.9693 75.4076 21.0827 75.4076 21.1982C75.4076 21.3116 75.4231 21.4301 75.4539 21.5538C75.4868 21.6775 75.5362 21.793 75.602 21.9002C75.6678 22.0074 75.7511 22.094 75.8519 22.16C75.9527 22.226 76.072 22.259 76.2098 22.259ZM77.7181 22.3858C77.6441 22.3858 77.5782 22.3672 77.5206 22.3301C77.4631 22.2909 77.4343 22.2394 77.4343 22.1755C77.4343 22.1301 77.4476 22.093 77.4744 22.0641C77.5032 22.0332 77.5402 22.0167 77.5854 22.0146C77.6369 22.0105 77.6749 22.025 77.6996 22.0579C77.7243 22.0889 77.7366 22.1198 77.7366 22.1507C77.7366 22.1858 77.7263 22.2136 77.7058 22.2342C77.7222 22.2507 77.7397 22.259 77.7582 22.259C77.7932 22.259 77.8333 22.2291 77.8785 22.1693C77.9258 22.1095 77.9711 22.0177 78.0143 21.894C78.0575 21.7703 78.0935 21.6147 78.1223 21.427C78.1511 21.2373 78.1655 21.0136 78.1655 20.7559V20.2951H78.1007L77.8754 20.3075V20.1714H79.4026V20.2734C79.3265 20.2755 79.273 20.293 79.2422 20.326C79.2134 20.359 79.1969 20.4033 79.1928 20.459C79.1908 20.5147 79.1897 20.5796 79.1897 20.6538V21.9683C79.1897 22.0239 79.1887 22.0724 79.1867 22.1136C79.1867 22.1528 79.1846 22.1858 79.1805 22.2126C79.2175 22.2105 79.2545 22.2085 79.2915 22.2064C79.3286 22.2043 79.3656 22.2023 79.4026 22.2002V22.3363H78.7054V22.2342C78.7835 22.2301 78.837 22.2126 78.8658 22.1817C78.8966 22.1487 78.9131 22.1043 78.9151 22.0487C78.9193 21.9909 78.9213 21.926 78.9213 21.8538V20.292L78.4863 20.2951C78.4123 20.2951 78.366 20.3157 78.3475 20.3569C78.329 20.3961 78.3176 20.4559 78.3135 20.5363C78.3135 20.7178 78.3074 20.8971 78.295 21.0745C78.2827 21.2518 78.2632 21.4198 78.2364 21.5786C78.2097 21.7353 78.1737 21.8744 78.1284 21.9961C78.0832 22.1177 78.0266 22.2136 77.9587 22.2837C77.8909 22.3518 77.8106 22.3858 77.7181 22.3858ZM80.7861 22.3858C80.5908 22.3858 80.4231 22.3528 80.2833 22.2868C80.1434 22.2208 80.0292 22.1332 79.9408 22.0239C79.8544 21.9126 79.7907 21.7899 79.7495 21.6559C79.7084 21.5219 79.6878 21.3879 79.6878 21.2538C79.6878 21.1239 79.7094 20.993 79.7526 20.8611C79.7958 20.727 79.8616 20.6044 79.9501 20.493C80.0406 20.3817 80.1527 20.292 80.2863 20.224C80.4221 20.1559 80.5805 20.1219 80.7615 20.1219C80.9507 20.1219 81.1142 20.1559 81.252 20.224C81.3898 20.292 81.5029 20.3827 81.5914 20.4961C81.6819 20.6075 81.7487 20.7291 81.7919 20.8611C81.8372 20.993 81.8598 21.1239 81.8598 21.2538C81.8598 21.3817 81.8382 21.5126 81.795 21.6466C81.7518 21.7786 81.685 21.9012 81.5945 22.0146C81.506 22.126 81.395 22.2157 81.2613 22.2837C81.1276 22.3518 80.9692 22.3858 80.7861 22.3858ZM80.7923 22.259C80.9198 22.259 81.0309 22.2322 81.1255 22.1786C81.2201 22.1229 81.2983 22.0497 81.36 21.959C81.4238 21.8662 81.4711 21.7641 81.5019 21.6528C81.5348 21.5394 81.5513 21.426 81.5513 21.3126C81.5513 21.1848 81.5338 21.058 81.4988 20.9322C81.4639 20.8064 81.4124 20.692 81.3446 20.5889C81.2767 20.4858 81.1924 20.4033 81.0916 20.3415C80.9929 20.2776 80.8797 20.2456 80.7522 20.2456C80.6247 20.2456 80.5126 20.2734 80.4159 20.3291C80.3213 20.3848 80.2421 20.459 80.1784 20.5518C80.1167 20.6425 80.0694 20.7446 80.0364 20.858C80.0056 20.9693 79.9902 21.0827 79.9902 21.1982C79.9902 21.3116 80.0056 21.4301 80.0364 21.5538C80.0694 21.6775 80.1187 21.793 80.1845 21.9002C80.2504 22.0074 80.3337 22.094 80.4344 22.16C80.5352 22.226 80.6545 22.259 80.7923 22.259ZM82.1378 22.3363V22.2342C82.216 22.2301 82.2694 22.2126 82.2982 22.1817C82.327 22.1487 82.3424 22.1043 82.3445 22.0487C82.3486 21.9909 82.3507 21.926 82.3507 21.8538V20.5178C82.3507 20.4765 82.3517 20.4374 82.3538 20.4002C82.3558 20.3611 82.3579 20.326 82.3599 20.2951C82.3229 20.2972 82.2859 20.2992 82.2489 20.3013C82.2118 20.3033 82.1748 20.3054 82.1378 20.3075V20.1714H83.5693L83.5848 20.7126H83.4706C83.4706 20.591 83.4521 20.4992 83.4151 20.4374C83.378 20.3734 83.3287 20.3312 83.267 20.3106C83.2053 20.2879 83.1353 20.2776 83.0572 20.2796L82.832 20.2858C82.7559 20.2879 82.7034 20.3064 82.6746 20.3415C82.6458 20.3745 82.6294 20.4188 82.6253 20.4745C82.6211 20.5301 82.6191 20.5941 82.6191 20.6662V21.9683C82.6191 22.0239 82.6181 22.0724 82.616 22.1136C82.616 22.1528 82.6139 22.1858 82.6098 22.2126C82.6448 22.2105 82.6798 22.2095 82.7147 22.2095C82.7497 22.2074 82.7847 22.2054 82.8196 22.2033C82.8546 22.2012 82.8896 22.2002 82.9245 22.2002V22.3363H82.1378ZM84.5223 20.2734C84.4462 20.2755 84.3927 20.293 84.3619 20.326C84.3331 20.359 84.3166 20.4033 84.3125 20.459C84.3105 20.5147 84.3094 20.5796 84.3094 20.6538V21.9683C84.3094 22.0239 84.3084 22.0724 84.3063 22.1136C84.3063 22.1528 84.3043 22.1858 84.3002 22.2126C84.3372 22.2105 84.3742 22.2085 84.4112 22.2064C84.4483 22.2043 84.4853 22.2023 84.5223 22.2002V22.3363H83.8281V22.2342C83.9063 22.2301 83.9598 22.2126 83.9886 22.1817C84.0174 22.1487 84.0328 22.1043 84.0348 22.0487C84.039 21.9909 84.041 21.926 84.041 21.8538V20.5178C84.041 20.4765 84.042 20.4374 84.0441 20.4002C84.0462 20.3611 84.0482 20.326 84.0503 20.2951C84.0133 20.2972 83.9762 20.2992 83.9392 20.3013C83.9022 20.3033 83.8652 20.3054 83.8281 20.3075V20.1714H84.5223V20.2734ZM85.9261 20.2734C85.85 20.2755 85.7965 20.293 85.7656 20.326C85.7368 20.359 85.7204 20.4033 85.7163 20.459C85.7142 20.5147 85.7132 20.5796 85.7132 20.6538V21.9683C85.7132 22.0239 85.7122 22.0724 85.7101 22.1136C85.7101 22.1528 85.708 22.1858 85.7039 22.2126C85.741 22.2105 85.778 22.2085 85.815 22.2064C85.852 22.2043 85.889 22.2023 85.9261 22.2002V22.3363H85.2319V22.2342C85.3101 22.2301 85.3635 22.2126 85.3923 22.1817C85.4211 22.1487 85.4365 22.1043 85.4386 22.0487C85.4427 21.9909 85.4448 21.926 85.4448 21.8538V20.5178C85.4448 20.4765 85.4458 20.4374 85.4479 20.4002C85.4499 20.3611 85.452 20.326 85.454 20.2951C85.417 20.2972 85.38 20.2992 85.343 20.3013C85.3059 20.3033 85.2689 20.3054 85.2319 20.3075V20.1714H85.9261V20.2734ZM85.5219 20.3229L85.6083 20.4064L84.1953 22.1755L84.0996 22.0858L85.5219 20.3229ZM86.9596 20.2734C86.8835 20.2755 86.83 20.293 86.7992 20.326C86.7704 20.359 86.7539 20.4033 86.7498 20.459C86.7478 20.5147 86.7467 20.5796 86.7467 20.6538V21.9683C86.7467 22.0239 86.7457 22.0724 86.7436 22.1136C86.7436 22.1528 86.7416 22.1858 86.7375 22.2126C86.7745 22.2105 86.8115 22.2085 86.8485 22.2064C86.8856 22.2043 86.9226 22.2023 86.9596 22.2002V22.3363H86.2654V22.2342C86.3436 22.2301 86.3971 22.2126 86.4259 22.1817C86.4547 22.1487 86.4701 22.1043 86.4721 22.0487C86.4763 21.9909 86.4783 21.926 86.4783 21.8538V20.5178C86.4783 20.4765 86.4793 20.4374 86.4814 20.4002C86.4835 20.3611 86.4855 20.326 86.4876 20.2951C86.4505 20.2972 86.4135 20.2992 86.3765 20.3013C86.3395 20.3033 86.3025 20.3054 86.2654 20.3075V20.1714H86.9596V20.2734ZM88.3634 20.2734C88.2873 20.2755 88.2338 20.293 88.2029 20.326C88.1741 20.359 88.1577 20.4033 88.1536 20.459C88.1515 20.5147 88.1505 20.5796 88.1505 20.6538V21.9683C88.1505 22.0239 88.1495 22.0724 88.1474 22.1136C88.1474 22.1528 88.1454 22.1858 88.1412 22.2126C88.1783 22.2105 88.2153 22.2085 88.2523 22.2064C88.2893 22.2043 88.3263 22.2023 88.3634 22.2002V22.3363H87.6692V22.2342C87.7474 22.2301 87.8008 22.2126 87.8296 22.1817C87.8584 22.1487 87.8739 22.1043 87.8759 22.0487C87.88 21.9909 87.8821 21.926 87.8821 21.8538V20.5178C87.8821 20.4765 87.8831 20.4374 87.8852 20.4002C87.8872 20.3611 87.8893 20.326 87.8913 20.2951C87.8543 20.2972 87.8173 20.2992 87.7803 20.3013C87.7432 20.3033 87.7062 20.3054 87.6692 20.3075V20.1714H88.3634V20.2734ZM87.9592 20.3229L88.0456 20.4064L86.6326 22.1755L86.5369 22.0858L87.9592 20.3229ZM90.2076 20.2734C90.1315 20.2755 90.078 20.293 90.0472 20.326C90.0184 20.359 90.0019 20.4033 89.9978 20.459C89.9958 20.5147 89.9947 20.5796 89.9947 20.6538V21.9683C89.9947 22.0239 89.9937 22.0724 89.9917 22.1136C89.9917 22.1528 89.9896 22.1858 89.9855 22.2126C90.0225 22.2105 90.0595 22.2085 90.0966 22.2064C90.1336 22.2043 90.1706 22.2023 90.2076 22.2002V22.3363H89.5135V22.2342C89.5916 22.2301 89.6451 22.2126 89.6739 22.1817C89.7027 22.1487 89.7181 22.1043 89.7202 22.0487C89.7243 21.9909 89.7263 21.926 89.7263 21.8538V20.5178C89.7263 20.4765 89.7274 20.4374 89.7294 20.4002C89.7315 20.3611 89.7335 20.326 89.7356 20.2951C89.6986 20.2972 89.6616 20.2992 89.6245 20.3013C89.5875 20.3033 89.5505 20.3054 89.5135 20.3075V20.1714H90.2076V20.2734ZM91.6114 20.2734C91.5353 20.2755 91.4818 20.293 91.451 20.326C91.4222 20.359 91.4057 20.4033 91.4016 20.459C91.3995 20.5147 91.3985 20.5796 91.3985 20.6538V21.9683C91.3985 22.0239 91.3975 22.0724 91.3954 22.1136C91.3954 22.1528 91.3934 22.1858 91.3892 22.2126C91.4263 22.2105 91.4633 22.2085 91.5003 22.2064C91.5373 22.2043 91.5744 22.2023 91.6114 22.2002V22.3363H90.9172V22.2342C90.9954 22.2301 91.0489 22.2126 91.0776 22.1817C91.1064 22.1487 91.1219 22.1043 91.1239 22.0487C91.128 21.9909 91.1301 21.926 91.1301 21.8538V20.5178C91.1301 20.4765 91.1311 20.4374 91.1332 20.4002C91.1352 20.3611 91.1373 20.326 91.1393 20.2951C91.1023 20.2972 91.0653 20.2992 91.0283 20.3013C90.9913 20.3033 90.9542 20.3054 90.9172 20.3075V20.1714H91.6114V20.2734ZM91.2072 20.3229L91.2936 20.4064L89.8806 22.1755L89.785 22.0858L91.2072 20.3229ZM92.7611 22.3363V22.2342C92.8393 22.2301 92.8928 22.2126 92.9216 22.1817C92.9503 22.1487 92.9658 22.1043 92.9678 22.0487C92.972 21.9909 92.974 21.926 92.974 21.8538V20.5178C92.974 20.4765 92.975 20.4374 92.9771 20.4002C92.9791 20.3611 92.9812 20.326 92.9833 20.2951C92.9462 20.2972 92.9092 20.2992 92.8722 20.3013C92.8352 20.3033 92.7982 20.3054 92.7611 20.3075V20.1714H93.4553V20.2734C93.3792 20.2755 93.3257 20.293 93.2949 20.326C93.2661 20.359 93.2496 20.4033 93.2455 20.459C93.2434 20.5147 93.2424 20.5796 93.2424 20.6538V21.1611H93.4738L93.8595 20.5518C93.8862 20.5105 93.9191 20.4652 93.9582 20.4157C93.9973 20.3662 94.0374 20.325 94.0785 20.292C94.0476 20.2941 94.0158 20.2951 93.9829 20.2951C93.952 20.2951 93.9212 20.2961 93.8903 20.2982V20.1714H94.5536V20.2734C94.4672 20.2796 94.3901 20.2941 94.3222 20.3167C94.2544 20.3394 94.1896 20.3796 94.1279 20.4374C94.0662 20.493 94.0004 20.5776 93.9304 20.691L93.6281 21.1734C93.6877 21.2085 93.736 21.2497 93.7731 21.2971C93.8101 21.3425 93.8471 21.3889 93.8841 21.4363L94.2297 21.8971C94.3078 22.0002 94.3716 22.0765 94.421 22.126C94.4724 22.1734 94.5176 22.2033 94.5567 22.2157C94.5978 22.228 94.64 22.2342 94.6832 22.2342V22.3363H94.3068C94.2862 22.3363 94.2585 22.3219 94.2235 22.293C94.1906 22.2641 94.1546 22.227 94.1155 22.1817C94.0764 22.1342 94.0363 22.0847 93.9952 22.0332L93.625 21.5322C93.5859 21.4806 93.5468 21.4322 93.5078 21.3868C93.4687 21.3394 93.4306 21.3043 93.3936 21.2817L93.2424 21.2848V21.9683C93.2424 22.0239 93.2414 22.0724 93.2393 22.1136C93.2393 22.1528 93.2373 22.1858 93.2332 22.2126C93.2702 22.2105 93.3072 22.2085 93.3442 22.2064C93.3812 22.2043 93.4183 22.2023 93.4553 22.2002V22.3363H92.7611ZM94.8673 22.2342C94.9454 22.2301 94.9989 22.2126 95.0277 22.1817C95.0565 22.1487 95.0719 22.1043 95.074 22.0487C95.0781 21.9909 95.0802 21.926 95.0802 21.8538V20.5178C95.0802 20.4765 95.0812 20.4374 95.0832 20.4002C95.0853 20.3611 95.0874 20.326 95.0894 20.2951C95.0524 20.2972 95.0154 20.2992 94.9783 20.3013C94.9413 20.3033 94.9043 20.3054 94.8673 20.3075V20.1714C94.9763 20.1693 95.0884 20.1683 95.2036 20.1683C95.3187 20.1662 95.436 20.1652 95.5553 20.1652C95.7548 20.1652 95.9224 20.1879 96.0582 20.2332C96.1939 20.2786 96.2978 20.3456 96.3698 20.4343C96.4418 20.5229 96.4808 20.6332 96.487 20.7652C96.4911 20.8456 96.4788 20.9301 96.45 21.0188C96.4232 21.1054 96.3718 21.1879 96.2957 21.2662C96.2217 21.3425 96.1168 21.4043 95.981 21.4518C95.8453 21.4992 95.6715 21.5229 95.4596 21.5229C95.4514 21.5229 95.436 21.5229 95.4134 21.5229C95.3907 21.5229 95.3691 21.5219 95.3486 21.5198V21.9683C95.3486 22.0239 95.3475 22.0724 95.3455 22.1136C95.3455 22.1528 95.3434 22.1858 95.3393 22.2126C95.3722 22.2105 95.4041 22.2085 95.435 22.2064C95.4658 22.2043 95.4967 22.2033 95.5275 22.2033C95.5604 22.2012 95.5923 22.1992 95.6232 22.1971V22.3363H94.8673V22.2342ZM95.3486 21.393C95.3877 21.3971 95.4206 21.4002 95.4473 21.4023C95.4761 21.4023 95.51 21.4023 95.5491 21.4023C95.6663 21.4023 95.7733 21.3796 95.87 21.3342C95.9666 21.2868 96.0438 21.2198 96.1014 21.1332C96.1589 21.0466 96.1877 20.9435 96.1877 20.8239C96.1877 20.727 96.1723 20.6446 96.1415 20.5765C96.1106 20.5064 96.0664 20.4508 96.0088 20.4095C95.9533 20.3662 95.8864 20.3353 95.8083 20.3167C95.7301 20.2961 95.6437 20.2858 95.5491 20.2858C95.4771 20.2858 95.4267 20.3013 95.3979 20.3322C95.3712 20.3631 95.3558 20.4064 95.3517 20.4621C95.3496 20.5157 95.3486 20.5796 95.3486 20.6538V21.393ZM96.5501 22.3363V22.2342C96.6118 22.2342 96.6591 22.2177 96.692 22.1847C96.7249 22.1518 96.7516 22.1064 96.7722 22.0487C96.7948 21.9909 96.8205 21.9239 96.8493 21.8476L97.4849 20.1126H97.5589L98.2469 21.8724C98.2634 21.9157 98.2819 21.9713 98.3025 22.0394C98.323 22.1074 98.3313 22.1652 98.3271 22.2126C98.3621 22.2105 98.3971 22.2085 98.432 22.2064C98.467 22.2043 98.502 22.2023 98.5369 22.2002V22.3363H97.8304V22.2342C97.9086 22.2322 97.96 22.2146 97.9847 22.1817C98.0094 22.1487 98.0186 22.1095 98.0125 22.0641C98.0063 22.0188 97.996 21.9775 97.9816 21.9404L97.8736 21.6497L97.0715 21.6683L96.9635 21.9992C96.9491 22.0487 96.9357 22.0878 96.9234 22.1167C96.9131 22.1456 96.9008 22.1775 96.8864 22.2126C96.9275 22.2105 96.9676 22.2085 97.0067 22.2064C97.0478 22.2043 97.0879 22.2023 97.127 22.2002V22.3363H96.5501ZM97.1178 21.5353H97.8304L97.6114 20.9446C97.5888 20.8806 97.5651 20.8178 97.5404 20.7559C97.5178 20.692 97.4952 20.6281 97.4725 20.5642H97.4664C97.4458 20.6219 97.4242 20.6796 97.4016 20.7373C97.381 20.7951 97.3594 20.8538 97.3368 20.9136L97.1178 21.5353ZM100.361 20.8611C100.34 20.6672 100.272 20.5167 100.157 20.4095C100.044 20.3023 99.8979 20.2487 99.7189 20.2487C99.6099 20.2487 99.5071 20.2724 99.4104 20.3198C99.3158 20.3652 99.2325 20.4312 99.1605 20.5178C99.0885 20.6044 99.0319 20.7085 98.9908 20.8301C98.9497 20.9518 98.9291 21.0889 98.9291 21.2415C98.9291 21.4353 98.9661 21.6064 99.0402 21.7549C99.1142 21.9033 99.214 22.0188 99.3394 22.1012C99.4649 22.1837 99.6037 22.225 99.7559 22.225C99.8896 22.225 100.021 22.1951 100.151 22.1353C100.28 22.0734 100.386 21.9847 100.469 21.8693L100.549 21.9342C100.46 22.0559 100.365 22.1497 100.262 22.2157C100.159 22.2817 100.056 22.326 99.9534 22.3487C99.8526 22.3734 99.76 22.3858 99.6757 22.3858C99.5215 22.3858 99.3795 22.3579 99.25 22.3023C99.1224 22.2466 99.0114 22.1693 98.9168 22.0703C98.8242 21.9693 98.7522 21.8528 98.7008 21.7208C98.6514 21.5868 98.6268 21.4425 98.6268 21.2879C98.6268 21.1415 98.6483 20.9992 98.6915 20.8611C98.7368 20.7229 98.8036 20.5982 98.8921 20.4868C98.9805 20.3755 99.0916 20.2868 99.2253 20.2209C99.361 20.1549 99.5184 20.1219 99.6973 20.1219C99.8125 20.1219 99.9215 20.1374 100.024 20.1683C100.127 20.1992 100.226 20.2466 100.321 20.3106L100.305 20.1435H100.472V20.8611H100.361ZM101.882 22.3858C101.687 22.3858 101.519 22.3528 101.379 22.2868C101.24 22.2208 101.125 22.1332 101.037 22.0239C100.951 21.9126 100.887 21.7899 100.846 21.6559C100.805 21.5219 100.784 21.3879 100.784 21.2538C100.784 21.1239 100.806 20.993 100.849 20.8611C100.892 20.727 100.958 20.6044 101.046 20.493C101.137 20.3817 101.249 20.292 101.383 20.224C101.518 20.1559 101.677 20.1219 101.858 20.1219C102.047 20.1219 102.21 20.1559 102.348 20.224C102.486 20.292 102.599 20.3827 102.688 20.4961C102.778 20.6075 102.845 20.7291 102.888 20.8611C102.933 20.993 102.956 21.1239 102.956 21.2538C102.956 21.3817 102.934 21.5126 102.891 21.6466C102.848 21.7786 102.781 21.9012 102.691 22.0146C102.602 22.126 102.491 22.2157 102.357 22.2837C102.224 22.3518 102.065 22.3858 101.882 22.3858ZM101.888 22.259C102.016 22.259 102.127 22.2322 102.222 22.1786C102.316 22.1229 102.394 22.0497 102.456 21.959C102.52 21.8662 102.567 21.7641 102.598 21.6528C102.631 21.5394 102.647 21.426 102.647 21.3126C102.647 21.1848 102.63 21.058 102.595 20.9322C102.56 20.8064 102.509 20.692 102.441 20.5889C102.373 20.4858 102.289 20.4033 102.188 20.3415C102.089 20.2776 101.976 20.2456 101.848 20.2456C101.721 20.2456 101.609 20.2734 101.512 20.3291C101.417 20.3848 101.338 20.459 101.275 20.5518C101.213 20.6425 101.166 20.7446 101.133 20.858C101.102 20.9693 101.086 21.0827 101.086 21.1982C101.086 21.3116 101.102 21.4301 101.133 21.5538C101.166 21.6775 101.215 21.793 101.281 21.9002C101.347 22.0074 101.43 22.094 101.531 22.16C101.631 22.226 101.751 22.259 101.888 22.259ZM104.808 20.8239C104.806 20.7023 104.794 20.6013 104.771 20.5209C104.749 20.4404 104.709 20.3807 104.651 20.3415C104.596 20.3002 104.514 20.2807 104.407 20.2827H104.145L104.142 21.9683C104.142 22.0239 104.141 22.0724 104.139 22.1136C104.139 22.1528 104.137 22.1858 104.133 22.2126C104.176 22.2105 104.218 22.2085 104.259 22.2064C104.302 22.2043 104.346 22.2023 104.389 22.2002V22.3363H103.664V22.2342C103.742 22.2301 103.794 22.2115 103.821 22.1786C103.85 22.1456 103.865 22.1012 103.867 22.0456C103.872 21.9878 103.874 21.9239 103.874 21.8538L103.877 20.2858L103.559 20.2889C103.429 20.2889 103.338 20.3322 103.284 20.4188C103.231 20.5054 103.204 20.6404 103.204 20.8239H103.09L103.109 20.1714H104.907L104.926 20.8239H104.808ZM105.165 22.3363V22.2342C105.241 22.2322 105.294 22.2157 105.323 22.1847C105.351 22.1518 105.368 22.1074 105.372 22.0518C105.376 21.994 105.378 21.928 105.378 21.8538V20.5178C105.378 20.4765 105.379 20.4374 105.381 20.4002C105.383 20.3611 105.385 20.326 105.387 20.2951C105.35 20.2972 105.313 20.2992 105.276 20.3013C105.239 20.3033 105.202 20.3054 105.165 20.3075V20.1714H105.859V20.2734C105.783 20.2755 105.73 20.293 105.699 20.326C105.67 20.359 105.654 20.4033 105.65 20.459C105.648 20.5147 105.647 20.5796 105.647 20.6538V21.0775L105.896 21.0683C106.055 21.0641 106.189 21.0765 106.298 21.1054C106.407 21.1322 106.494 21.1734 106.56 21.2291C106.626 21.2848 106.673 21.3507 106.702 21.427C106.733 21.5033 106.748 21.5868 106.748 21.6775C106.748 21.8219 106.717 21.9435 106.655 22.0425C106.594 22.1394 106.511 22.2126 106.409 22.2621C106.306 22.3115 106.192 22.3363 106.066 22.3363H105.165ZM105.637 22.2126C105.67 22.2146 105.709 22.2167 105.755 22.2188C105.802 22.2188 105.845 22.2188 105.884 22.2188C105.925 22.2188 105.952 22.2188 105.964 22.2188C106.055 22.2188 106.137 22.2002 106.211 22.1631C106.285 22.126 106.344 22.0683 106.387 21.9899C106.43 21.9116 106.452 21.8116 106.452 21.6899C106.452 21.558 106.427 21.4559 106.378 21.3837C106.33 21.3116 106.27 21.261 106.196 21.2322C106.122 21.2013 106.045 21.1858 105.964 21.1858C105.903 21.1858 105.846 21.1868 105.795 21.1889C105.745 21.1889 105.696 21.1909 105.647 21.1951C105.647 21.3951 105.647 21.558 105.647 21.6837C105.647 21.8074 105.646 21.9043 105.643 21.9744C105.643 22.0425 105.642 22.094 105.64 22.1291C105.64 22.1641 105.639 22.192 105.637 22.2126ZM106.905 22.3363V22.2342C106.983 22.2301 107.037 22.2126 107.066 22.1817C107.095 22.1487 107.11 22.1043 107.112 22.0487C107.116 21.9909 107.118 21.926 107.118 21.8538V20.5178C107.118 20.4765 107.118 20.4374 107.118 20.4002C107.12 20.3611 107.123 20.326 107.127 20.2951C107.09 20.2972 107.053 20.2992 107.016 20.3013C106.979 20.3033 106.942 20.3054 106.905 20.3075V20.1714H107.6V20.2734C107.523 20.2755 107.47 20.293 107.439 20.326C107.41 20.359 107.394 20.4033 107.39 20.459C107.388 20.5147 107.387 20.5796 107.387 20.6538V21.9683C107.387 22.0239 107.386 22.0724 107.384 22.1136C107.381 22.1528 107.378 22.1858 107.374 22.2126C107.411 22.2105 107.448 22.2085 107.485 22.2064C107.524 22.2043 107.562 22.2023 107.6 22.2002V22.3363H106.905Z" fill="#D59E49"/>
</g>
</mask>
<g mask="url(#mask0_870_46)">
<rect y="-4.32007" width="108.324" height="36.72" fill="white"/>
</g>
<defs>
<linearGradient id="paint0_linear_870_46" x1="35.9016" y1="16.0732" x2="35.9016" y2="5.67395" gradientUnits="userSpaceOnUse">
<stop stop-color="#014A8D"/>
<stop offset="1" stop-color="#0F71C0"/>
</linearGradient>
<linearGradient id="paint1_linear_870_46" x1="45.2136" y1="15.8533" x2="45.2136" y2="6.07177" gradientUnits="userSpaceOnUse">
<stop stop-color="#014A8D"/>
<stop offset="1" stop-color="#0F71C0"/>
</linearGradient>
<linearGradient id="paint2_linear_870_46" x1="49.1379" y1="15.8531" x2="49.1379" y2="5.18939" gradientUnits="userSpaceOnUse">
<stop stop-color="#014A8D"/>
<stop offset="1" stop-color="#0F71C0"/>
</linearGradient>
<linearGradient id="paint3_linear_870_46" x1="54.5797" y1="16.0803" x2="54.5797" y2="9.30652" gradientUnits="userSpaceOnUse">
<stop stop-color="#014A8D"/>
<stop offset="1" stop-color="#0F71C0"/>
</linearGradient>
<linearGradient id="paint4_linear_870_46" x1="60.2429" y1="15.8531" x2="60.2429" y2="9.30377" gradientUnits="userSpaceOnUse">
<stop stop-color="#014A8D"/>
<stop offset="1" stop-color="#0F71C0"/>
</linearGradient>
<linearGradient id="paint5_linear_870_46" x1="71.9046" y1="16.0732" x2="71.9046" y2="5.44659" gradientUnits="userSpaceOnUse">
<stop stop-color="#014A8D"/>
<stop offset="1" stop-color="#0F71C0"/>
</linearGradient>
<linearGradient id="paint6_linear_870_46" x1="79.0422" y1="15.8531" x2="79.0422" y2="5.18939" gradientUnits="userSpaceOnUse">
<stop stop-color="#014A8D"/>
<stop offset="1" stop-color="#0F71C0"/>
</linearGradient>
<linearGradient id="paint7_linear_870_46" x1="82.9437" y1="15.8533" x2="82.9437" y2="6.07177" gradientUnits="userSpaceOnUse">
<stop stop-color="#014A8D"/>
<stop offset="1" stop-color="#0F71C0"/>
</linearGradient>
<linearGradient id="paint8_linear_870_46" x1="89.0354" y1="15.8494" x2="89.0354" y2="9.30003" gradientUnits="userSpaceOnUse">
<stop stop-color="#014A8D"/>
<stop offset="1" stop-color="#0F71C0"/>
</linearGradient>
<linearGradient id="paint9_linear_870_46" x1="94.9437" y1="15.8533" x2="94.9437" y2="6.07177" gradientUnits="userSpaceOnUse">
<stop stop-color="#014A8D"/>
<stop offset="1" stop-color="#0F71C0"/>
</linearGradient>
<linearGradient id="paint10_linear_870_46" x1="100.205" y1="16.0803" x2="100.205" y2="9.30652" gradientUnits="userSpaceOnUse">
<stop stop-color="#014A8D"/>
<stop offset="1" stop-color="#0F71C0"/>
</linearGradient>
<linearGradient id="paint11_linear_870_46" x1="8.74272" y1="5.35201" x2="7.83957" y2="4.56882" gradientUnits="userSpaceOnUse">
<stop offset="1" stop-color="#004963"/>
</linearGradient>
<linearGradient id="paint12_linear_870_46" x1="9.92169" y1="6.26041" x2="11.8531" y2="5.597" gradientUnits="userSpaceOnUse">
<stop offset="1" stop-color="#004963"/>
</linearGradient>
<linearGradient id="paint13_linear_870_46" x1="7.98511" y1="6.72421" x2="15.5345" y2="7.1189" gradientUnits="userSpaceOnUse">
<stop offset="1" stop-color="#004963"/>
</linearGradient>
<linearGradient id="paint14_linear_870_46" x1="9.29738" y1="6.70589" x2="7.83034" y2="6.52621" gradientUnits="userSpaceOnUse">
<stop offset="1" stop-color="#004963"/>
</linearGradient>
<linearGradient id="paint15_linear_870_46" x1="13.3451" y1="-2.54802" x2="17.7987" y2="16.6955" gradientUnits="userSpaceOnUse">
<stop offset="1" stop-color="#004963"/>
</linearGradient>
<linearGradient id="paint16_linear_870_46" x1="-87.1873" y1="105.889" x2="32.0865" y2="-17.3214" gradientUnits="userSpaceOnUse">
<stop offset="1" stop-color="#004963"/>
</linearGradient>
<linearGradient id="paint17_linear_870_46" x1="12.0717" y1="23.055" x2="1.68746" y2="1.81608" gradientUnits="userSpaceOnUse">
<stop stop-color="#336F7E"/>
<stop offset="1" stop-color="#004963"/>
</linearGradient>
<linearGradient id="paint18_linear_870_46" x1="131.066" y1="490.537" x2="-104.208" y2="-450.794" gradientUnits="userSpaceOnUse">
<stop stop-color="#336F7E"/>
<stop offset="1" stop-color="#004963"/>
</linearGradient>
<linearGradient id="paint19_linear_870_46" x1="68.3315" y1="131.059" x2="-77.6828" y2="-154.811" gradientUnits="userSpaceOnUse">
<stop stop-color="#014A8D"/>
</linearGradient>
<linearGradient id="paint20_linear_870_46" x1="0.29345" y1="6.37274" x2="8.55935" y2="3.20753" gradientUnits="userSpaceOnUse">
<stop offset="1" stop-color="#004963"/>
</linearGradient>
<linearGradient id="paint21_linear_870_46" x1="27.6179" y1="58.522" x2="3.36581" y2="-38.5107" gradientUnits="userSpaceOnUse">
<stop stop-color="#336F7E"/>
<stop offset="1" stop-color="#004963"/>
</linearGradient>
<linearGradient id="paint22_linear_870_46" x1="-13.5481" y1="-128.647" x2="48.2063" y2="138.189" gradientUnits="userSpaceOnUse">
<stop offset="1" stop-color="#004963"/>
</linearGradient>
<linearGradient id="paint23_linear_870_46" x1="2.56452" y1="-58.4209" x2="33.7732" y2="76.4295" gradientUnits="userSpaceOnUse">
<stop offset="1" stop-color="#004963"/>
</linearGradient>
<linearGradient id="paint24_linear_870_46" x1="19.4969" y1="35.5045" x2="9.45805" y2="-4.66057" gradientUnits="userSpaceOnUse">
<stop stop-color="#336F7E"/>
<stop offset="1" stop-color="#004963"/>
</linearGradient>
<linearGradient id="paint25_linear_870_46" x1="19.6655" y1="31.3787" x2="11.8716" y2="0.195042" gradientUnits="userSpaceOnUse">
<stop stop-color="#336F7E"/>
<stop offset="1" stop-color="#004963"/>
</linearGradient>
<linearGradient id="paint26_linear_870_46" x1="6.78736" y1="6.04167" x2="8.12545" y2="6.1116" gradientUnits="userSpaceOnUse">
<stop stop-color="#034F94"/>
</linearGradient>
<linearGradient id="paint27_linear_870_46" x1="10.2006" y1="5.89783" x2="4.49311" y2="3.93737" gradientUnits="userSpaceOnUse">
<stop stop-color="#045195"/>
</linearGradient>
<clipPath id="clip0_870_46">
<rect width="108.324" height="26.46" fill="white"/>
</clipPath>
</defs>
</svg>
